<mxfile host="65bd71144e">
    <diagram id="HIP3nbAZw_EuaXWnEj3U" name="Page-1">
        <mxGraphModel dx="1115" dy="728" grid="1" gridSize="10" guides="1" tooltips="1" connect="1" arrows="1" fold="1" page="1" pageScale="1" pageWidth="850" pageHeight="1100" math="0" shadow="0">
            <root>
                <mxCell id="0"/>
                <mxCell id="1" parent="0"/>
                <mxCell id="7" value="http://ics2o.mths.ca" style="swimlane;whiteSpace=wrap;html=1;" parent="1" vertex="1">
                    <mxGeometry x="40" y="30" width="800" height="490" as="geometry"/>
                </mxCell>
                <mxCell id="8" value="&lt;font style=&quot;font-size: 38px;&quot;&gt;Division Program&lt;/font&gt;" style="text;html=1;align=center;verticalAlign=middle;resizable=0;points=[];autosize=1;strokeColor=#3700CC;fillColor=#6a00ff;fontColor=#ffffff;" vertex="1" parent="7">
                    <mxGeometry x="246" y="30" width="310" height="60" as="geometry"/>
                </mxCell>
                <mxCell id="9" value="" style="rounded=1;whiteSpace=wrap;html=1;fontSize=38;" vertex="1" parent="7">
                    <mxGeometry x="60" y="143" width="140" height="20" as="geometry"/>
                </mxCell>
                <mxCell id="10" value="" style="rounded=1;whiteSpace=wrap;html=1;fontSize=38;" vertex="1" parent="7">
                    <mxGeometry x="60" y="207" width="140" height="20" as="geometry"/>
                </mxCell>
                <mxCell id="11" value="&lt;font style=&quot;font-size: 12px;&quot;&gt;Divided By&lt;/font&gt;" style="text;html=1;align=center;verticalAlign=middle;resizable=0;points=[];autosize=1;strokeColor=none;fillColor=none;fontSize=38;" vertex="1" parent="7">
                    <mxGeometry x="80" y="80" width="80" height="60" as="geometry"/>
                </mxCell>
                <mxCell id="12" value="Divide" style="text;html=1;align=center;verticalAlign=middle;resizable=0;points=[];autosize=1;strokeColor=none;fillColor=none;fontSize=12;" vertex="1" parent="7">
                    <mxGeometry x="100" y="170" width="60" height="30" as="geometry"/>
                </mxCell>
                <mxCell id="13" value="Calculate" style="labelPosition=center;verticalLabelPosition=middle;align=center;html=1;shape=mxgraph.basic.shaded_button;dx=10;fillColor=#6a00ff;strokeColor=#3700CC;whiteSpace=wrap;fontSize=12;fontColor=#ffffff;" vertex="1" parent="7">
                    <mxGeometry x="80" y="260" width="100" height="60" as="geometry"/>
                </mxCell>
                <mxCell id="14" value="" style="shape=image;verticalLabelPosition=bottom;labelBackgroundColor=default;verticalAlign=top;aspect=fixed;imageAspect=0;image=data:image/png,iVBORw0KGgoAAAANSUhEUgAAArgAAAFoCAYAAAC8FoidAAAAAXNSR0IArs4c6QAAAAlwSFlzAAAOxAAADsQBlSsOGwAAABl0RVh0U29mdHdhcmUATWljcm9zb2Z0IE9mZmljZX/tNXEAAPqXSURBVHhe7F0HgBTF0q67vRzJGSRIEiWJSBbTM4Ji5DeHZ845i1kxYgZ95hwAxawoKFHFAKgEFVEkp7vjcvyreqf2eudmdmf3Nl/1eyd3Oz3dPV/3zn77zddVKXVYQIogkMAI0BJPSkpK4CuUSxMEBAFBQBAQBAQBHYEUgUMQSGQEiNw2y8+HwqKiRL5MuTZBQBAQBAQBQUAQ0BAQgivLIeERcJPbOqBnFaLkJvx0ywUKAoKAICAICAIgBFcWQcIiUFtbC/896Rg4+5TjYemvq+CDT7+Cj7+aJyQ3YWdcLkwQEAQEAUFAEHAjIARXVkJMIMA+2VD5ZamdE8YfCm9OvRcJLcCwQX3gzBOPxNcOgbdnfSYkNyZmXQYhCAgCgoAgIAiEBwEhuOHBVVoNAAEio6mpqVBVVQWpKSlQXVMTwNn2Va84/3Svg2mpLnji3htg1L6DYMF3P4ekD2lEEBAEBAFBQBAQBGIPASG4sTcnTW5EFN+gurpaXTeR28aquGRNOPyA0fDBK48q9VYvrZrnwWEH7tfkMJYLFgQEAUFAEBAEmhICQnCb0mzH4rWienvXDZfBkP79YNiQPeHX1WthyrSX0UbwaVA2AqUGowp8xbmnQXJyw9BgFBNv9906xyISMiZBQBAQBAQBQUAQCBECQnBDBKQ0EzgCREaXfzUDrr/4dI/SOnRAb3jtybuUfzYYkktREmpQwV325XTbATXLyw18sHKGICAICAKCgCAgCMQNAkJw42aqEmugRG7T09Og5M9FXjYCUl0xLQO8PvUeuObCs+CBp54PWMmltnvt3sUSMNJ0lyz/DQ5NLDjlagQBQUAQEAQEAUFAQ0AIriyHqCHQvHlzSxsBkVD6uenyswPeEOaOnnCIip5gVWpr6+Dn5Suids3SsSAgCAgCgoAgIAiEHwEhuOHHWHqwQSAjI8MnNrk5mXDJWac43nTGWaefvO9G23apzqatW2VOBAFBQBAQBAQBQSCBERCCm8CTG+uXtmXLViBF1WozGI2dVNyjDh2jVNz53/7k06pAxDXF5YKDxwyHj157zPbSt2wvUG01NlJDrGMr4xMEBAFBQBAQBJoyAkJwm/LsR/HaaTNYWVkZlP/9vS3BpeFR7NpDDxjjNz6ue3NZDTw1eZLPq/plxRroOBDJMEZaqAlRvN0owihdCwKCgCAgCAgCgoAFAkJwZVlEFYGi4hJo2cx3VIOjDt4Pbr73Ub/jRBEXxv9ntG09ChFWULRLHU9LS/PbnlQQBAQBQUAQEAQEgfhEQAhufM5bYowaGekzr8yAGy7xzjhmvrg9eu8Gx487BN798HN78opt5eRkQ8HKb3xis2TprzDRUI8TA0S5CkFAEBAEBAFBQBAwIyAEV9ZE1BAgRfXTOfPguouskzLwwMh+cMDo4X59sxeceoJPuwP1J0UQEAQEAUFAEBAEEh8BIbiJP8cxe4VEXGnD15/ffgy7dWqrNpXZlf579ITU1BRM6VtjWYXObdYsD6qqa9Gvm2zdDG5oe+bVd4OKrRuzIMrABAFBQBAQBAQBQaABAkJwZVFEFQGKZvD0C2/Dfbdc4nMclOHs6EMPtKzjDg9WBy2aN7Mnt1ijuqZWbUSjBBOVlVWOr5vDjxEhry91qChjpAev1xw3KRUFAUFAEBAEBAFBIIwICMENI7hNvWmnobgW/7SU+Kk7LphNSXYlQ9fOHRscpT7Ie1tRXgGvPjnZJ+QbNm+DYtzURvWdFCbOo/YdDMMHD4QhA/eEfQbtAelpqTDr83nw2vRZsOC7n/1aJ5z0JXUEAUFAEBAEBAFBIHQICMENHZZNviU3oUUYkKzW4u8UqaC6utovLmxT6Io2BbtCzQ4Z0K/BYVJQS0pK1evLvpzus6/f/1wH3Yf6HY6qUFtbC6OHDYaTjx0Pn705FdLRHsHxeomLn3fKUdAiP0+R26ysLBXyTIogIAgIAoKAICAIxAYCQnBjYx7ifhRE9K654Ezo3q0L7NhZAAu+/dFDbq0f8SMPZnJYWgpvzPwUrr/4dDdBtikHjB6izqFiZQ1o166lTxzXrNugjufm2ocl4/avvfAsmPnCFMsQZorD4zC++HohTDz/aiG3cb965QIEAUFAEBAEEg0BIbiJNqMRvh4ihJ+98QwctN8QmGz4aJUjFiMjFKxeAP+s2wQvv/MBkA1h3uIfvYgpJ3sgtZQIMZ3jy9PaIj8HjjvyP/D+p1+hn9Z7s5kiy5n2qX85ggK1v2nTZkuUqI2RQwfCrVdcCHfdcJFPP++vq9bCc2/MiDDa0p0gIAgIAoKAICAIOEFACK4TlKSOJQJETMfgY/w50//nZZ8lhTMpOQlysjOgb6/d1AayjZu3w+EHjIZPMCyYvjmLSGVqaqrKKrbl17m+kz4gOaV4uNM/+sJrPCpNL2Ymq/j7O/uZQoa75KdlfmeSyC2RdV8RHch+cf1dj8AnBx7rtz2pIAgIAoKAICAICAKRR0AIbuQxT4geiVSmITH9+v2XbWPPMtGlC27ftiV88OqjKpXu6zNmoZr7k0et5axiX81bggR2f1t8qL09enbzHNc3sSnl1xcrRWPwzM/mwPM2rRNZvw5tCf6iOdDpm7buRKI+PyHmUS5CEBAEBAFBQBBIRASE4CbirIb5mphYVuEGspr1Pzrqjbknbc4aufcAtYGLLQu0QYvafOmt9+A4JLi+eGqv3bt4fLij9h2kohgQua2qqnKPxSfJtR4qk9t7UWn2E8xBqc+TJj8Fz795sKPrlkqCgCAgCAgCgoAgEHkEhOBGHvO47pGIKMWRraiohLP/bwI8+9AtAV/Pnn27whtPT/YiuURSSRUtXrMYMtNTbdtMwSQO16DS+sBTz8OSpb+pekRQyf7w0WuP2Z5Xi0keKEQYFybpdO6J4w+FN6bd64gbL/ppBXqKZyHBDfiy5QRBQBAQBAQBQUAQiBACQnAjBHQidUNkkQjp2accH/RldUDLwvTnHvYiuRRf7OV3PlYhuOxKHfZ90Ohh6jCRbGWVwLi0px03zudY8DSl8lKhc9q3bwcbN25S/b/8+D2OyO3WHYVww10PNdjgFjQIcqIgIAgIAoKAICAIhAUBIbhhgbVpNLqrqLhRF9qqeZ5BcgcpTy6V12d84JPgUizakfv2h8P2HwWfzl1g2BOq1eYzp4UjKdShenvYAWPAV/xdbrNwVykce/aVyhIhRRAQBAQBQUAQEARiGwEhuLE9PzE5OhdmFSMVlMJk+Ys44O8CiOQ+efctwH5aSvpQtW6J7cY1ai8rIw1GDR/iaZoIK4UP8+ef1ceirAlHHQqvP3WP3/NKyipg3GmXwLc//uLvcuS4ICAICAKCgCAgCMQAAkJwY2AS4mkIRCbJGkDlnQ8+gz++/Ri6+chA5uTayJN72IH7eVLeTv9oLhx7xFhbkktEdvxBYzz1iWxTEgh/+8vYd0v/kjXhrWkP+CTSNHYityeec60ot04mUuoIAoKAICAICAIxgoAQ3BiZiHgcBhHFG+56FN6cek+jh3/VeSfDCWgzeGvWp/D4869iwoUB0KFtC8t2Vbiw3rvBCbg57G2sT2T16xn/8zkGlytJxdt1pw6uUyl427exbp8bqq5GlRfJrYQEa/T0SgOCgCAgCAgCgkBEERCCG1G4E6szUnPfQYJ5142Xww0Xn9aoi0tLdcG9N1+mrAqLliyDK259AF598m7bbGLU9ytP3AXLv5oBM55/xG/fFN7r8nNOVarvCeMPQ2vC3UbCCetTq2vq4MLr7xVy6xdZqSAICAKCgCAgCMQeAkJwY29O4mtESDRvvvdR+PT1aY3243br3E5ZFYjgzsBsZQ/u2QduuOR0WzxSMWRYvz5dFVH1V1y4Oe3mK/4LCz96XRFj2qxmV2pqAW6+7ylJxesPVDkuCAgCgoAgIAjEKAJCcGN0YuJpWKSK3jXlacjJuwb2HdDbr6/V17Vdd+GpsPSXFZiOdzZ88tXXMO7g/WBPJLG+CiUxc1JyMXXwUD/jw71ncMG1dwu5dQKo1BEEBAFBQBAQBGIUASG4MTox8TQssgvMw+gHo4YOhMmTroXhg/oEPfzk5GR48r4bYcPmLajkLofr7nwYPsQEDg45rN9+fSm3dPLkp172S271FMHcodVrfgcjFeIWAZpvKipFtJSQIyD4hhZSwTO0eEpr8YGAENz4mKe4GOXiH5CQ3vEAXHLWKRiXdv+gxkx8gUKHsVXhi/mL4ZlX3/cZGzeojixO+uLrJfDJl1/DzTYN8ocExeC95eoLYcAePVTNnYW74Lb7ydIw0xPZIVRjknZiDwEKMdf+6h6K3G588E8huSGeIsE3tIAKnqHFU1qLHwSE4MbPXMX0SOnDvgY/+N0huAZB3927AYX/CrZcf9Fp8CmSzYXox31t+vswcu/+0LfXbm4yQf/Hf0OpnZWWV8KdaLOwinXLxJZSE9NGNbOinInRGKY9eDNGk3hQRYCQZBDBznrsn8dkgUaqMuIh0RWSG7p5E3xDhyW1JHiGFk9pLb4QEIIbX/MV86NVdgXMSjZq34Hw1D23Bk1yyUow+dZrYPT4U2Hh98tg4MH1aYGHD+kPw/ceBBeccTx06dAGKPFEYwo9bL7joWcbEFMmttdccCZccOYJ8OxDt9h2k4S5gCl27w5Uc6UkJgI6WeArFJIburkWfEOHpZncynoNLbbSWnwgIAQ3PuYp7kb57Y+/woU33qlCeJHlIJgybHBfuOq80+HhZ172Ov1btEJQpIWHp72EpPJgJJ63Ql5OZjBdqHMo3u0DTz3vOZ+J7QnjD4FH7rgGJt9yif+2kZATzT5r4pH+60qNuEPAinwJaQjdNAq+ocPSjtzKeg0txtJa7CMgBDf25yjuRkgqblVVFaSkpMCxZ18J0597OCiSSxYEIpe3XXs+FKAyWlFZpbD4/qff4MU3Z8Ln3yyCGR/Pho2bNzdqc1t1TY0XuT0eE05ccf7paDm4N+6wlwGHHgFf5EtIQ+PxFnwbj6HeguAZWjyltfhFQAhu/M5dTI9ceXKROCpPLiZvuA/tBsFGV8hMT4UMI+tYHVoByJZw9GH7wdwFPyrfLKm5195+P2YnOwrOO/WogL251P6yL6fDrrJy2K1jG3jj6XuCDnVGYzp0t31iem5kcM4RcEIWhOQ6x9NcU/ANHjurMwXP0OIprcU3AkJw43v+Yn70HEKMNp49efctQXtyeUNZkpGggTy6B+83BBM93A8Tz78WFv+wDBYj0f1r7T/OLAUm5ChhBBXy4wa7ea2krAIeffYVOPSk82J+XmSA/hEIhCwIyfWPZ2PIreDrH19Zr/4xkhpNCwEhuE1rvqNytfUbzwbBS4/dDZSxLFSlQ9uWMPvtZ+DUi2/G5BBfKF9ufrM8TB18OkZaCLyXIE5RnVRUVsPZV9wuqX0DhzwmzwiGLAgJcz6Vgq9zrJzUFDydoCR1mhoCQnCb2oxH8XopTu4Zl90MLz56V0hJblqqC15/6h44/9oseOGt92HS/Y9Dy+bNIhI7l+DctnMXXHT9PfDuh59HEV3pOlQINIYsCMn1PwuCr3+MAqkheAaCltRtSggIwW1Ksx3Fa9U9uY0NIWZ1GS5XEky9/ybYsGkrfPb1QoydOwuOO/IAaNksN2xXTbFzH33uLbjp7kfgvU8ODFs/jW2Yo0I0tp3Gnh8PWb9CQRaE5NqvFMG3se8i7/MFz9DiKa0lFgJCcBNrPuPiahb/8AtcdNNdGF2BQoiFjoBSPNw3pk2GiedeqyIs3P/4i3DvTRcHvWHMDkzK0vrryrXqGuZjimIqeiSGWJoEIrftruoe9SFx1i+rgcQK8Q0lWRCS23CmBd/Qvg0Fz9DiKa0lHgJCcBNvTmP6inQl94Txh6qIBcF4Ze0uMhfj4Y4/7CBFcCl+LoUYoygJoSi1SBY3bd2JaXmfxrS8M2D+QceGotkm0YYd0TYT32iR3XCQBSG59Utb8A3t21zwDC2e0lpiIiAENzHnNeaviojMOx98ptLbHj9u/5CNlzaJUbKFWZ/Mhi/mLYb5i5eqaAvBFlJrKTvZV/OWwBMvvKYU2+feODjY5uQ8EwI68Y0W2eVsZOGcHO5j00NrwtlNTLYt+IZ2WgTP0OIprSUuAkJwE3du4+LKJp5/NSydPT3o8GFWF0mbzi4/9zSl4r4965OgCC6G24V/1m+Ge6b8T6m1E/uNxXBkV8cFpvE6SDuyGwlVl/oIt1c5EtcRq3Mv+IZ2ZgTP0OIprSUmAkJwE3Ne4+aqiFSQl5VCfaWmULLbxheKZTt25GAYPqQ/vPzuB/DMg7cEZIP4fO73KiICEdvn3ji88QOSFgJGgMmuruqGiyByH+2v7hE2kpucnAwbH/wzYBwS4QTBN7SzKHiGFk9pLXEREIKbuHMbF1dGN+v53/4IT02eFLKwXmRTSEUV95KzToFTLr5ekRan5OjtWV/BqZfeCNWYalhK9BEwE12n8xjoyMNJGpoyueV5EHwDXZG+6wueocVTWktMBITgJua8xtVVkc/19RkfwEkTDoHc7IyQjJ1I7nFH7g/N859yHEXhi6+XwP9dcI36kRJbCLDvkFXQcBDdcJAGIbf160jwDe17SvAMLZ7SWuIhIAQ38eY07q7IreL+pDacHYcbzoLNJma+cErnexBuMHOafnfNug2qiUAU37gDO44HHAk1N5SkwVdotDiehkYNXfBtFHwNThY8Q4untJZYCAjBTaz5jNurIfLy+POvwrFHjIUkJKahKk5bIhK8Zu0/ity2bNkCduzYGaohSDshRkBXc2NZyQ3H2EIMZVSaCxUpE3zd0yd4RmUZS6dxgIAQ3DiYpKYyxO9++gWmfzQ3pGHDAsWOPiyE3AaKWuTrxzrJFWuC7zXRWFIm+HrjK3hG/h4kPcY+AkJwY3+OmsQI6QZdWVkFo4cNDqlNIVDwxJ4QKGLRqx+rJFfIl7M1ESwpE3yt8RU8na07qdV0EBCC23TmOuavlL24Cz58DYYN6hPx8RJhSnG5oKa2NuJ9S4fBIRBrJFfIV2DzGCgpE3xDq4wLnoGtV6kdXwgIwY2v+Ur40RJhef61d2HfQTeHbLOZI9AoY9nOAsfhxBy1KZUigkCskFwhC8FNt1OSK/g6w1fwdIaT1Ep8BITgJv4cx9UV0s35uTdmwpZf50LLZrkRG/uukjJ4c9ZnUFVdHbE+paPQIRDuVLj+SIOQr8bNpeDbOPzMZwueocVTWotPBITgxue8Jfio6zCT2FchS/zgBKzP5iyG0tJSSEtLgypJ8uAEspisE04PtR1pEHIbmqUg+IYGR25F8AwtntJa/CEgBDf+5izhR0yJH2Z98mXECC6RIkrNO/H8q4XcxvHqCrdVgaAxkwYht6FdMIKv4BlaBKS1poyAENymPPsxfO2z5y2G7QW7ImJTqK2tg/eQUEuJfwTCbVXQSW6Ha3YHzqwW/8jFzhUwyRV8QzMngmdocJRW4g8BIbjxN2cJP2K6IVejF/auGy6DGy45PezX+/2y1VBdUxP2fqSDyCEQTquCTnKdXlE4xkNt2pXGJkGwa7ux7TrFK9AscOHA19dYfWHv7xojhaE+jljHM1RYRwNbf/Md6eNO12ZTwEoIbqRXn/TnCAH66P50zjy4/NyTIDM91dE5wVSqqamFux56Gj458uRgTpdzYhCBcKm4Tj84zJDQeaRGbnpojWO0/PXF12jVIH1wBdKXuY1aDJPX/uoeDZp2SpKC/eD0d8124AWDr+OJMCrqY/OFvb927TAMFrNQEUO9nUjg6XTcgWAdSWz9zbPV8WDXN7Xlb31w207xMmPlr/1grjcWzhGCGwuzIGOw/DCd/+1PsOzL6dCvT9ewIfS/Nz6ET+bMD1v70nD0EAhG1bP7EHL6wWF3tb4+QMx9NravxiDuq2861u6q7j6b90WC6Vg08A0Wj0BJg5N+rDC0wswp4YgnPJ2Q2sasfX/YOsXUyTz6+rJlR26tvjQ66cvXF1a65mAw07HS118kMHJyzaGqIwQ3VEhKO6FHAN+8s774OmwEt7KqBl6fMQsuvO720I9dWowqAsGouE4IXKgvKlx9BkPuQ3FtdtfDH6L+CHIoxtCYNsJBav2Nx4yZUwU+XGvH33hDeTxYguZ0DIxRJEhcpOfD7kmLU2y4XiQxCnRsja0vBLexCMr5YUOAbAo//7LSb/vKiejDj4jPdxokjaDqL7z1EZBKLCVxEYgW0YsmosGQ+3CPN9aVoXATrXDjG2/tRxrvRCNxoSK3+roxYxTr71kna14IrhOUpE7UEPhw9jcN+qaoByVlFbB4yS9QULQLliz9FdauW6/qsd3gsP1Hec7r2rkjdO/aBVrk50LnTu2hXevmsHHrTlFvQzirgTyCD2G3PpuKRaIXqWuPpX5YPbN7nB7tsYaDLET7mmK1/0gTWzMOiUB0w71e+b5JEWLineQKwY3VO4GMS3mLamtr4K91mxQan839FnYUFMCnX30DC777GQ7tNVK9fqKh3iZZYMb7zM1vVNpCM182loVklfnziLH3LFoEJ9ZVXF/e1JBMUACNRGuOAhhiSKuGmywEM9h4JxVW1xxtYuuP6MYL5pFar4lCcoXgBnMHknPCjgC9wdLT0zBcWA30HH6k6i8lxYWEtxaSiLUapJbqTcjMhIE52dDClQKpaEfISMYfNCWsx9Bff5eXw/KSEphrk4KXmoqXm1vYQQ9DB0x++YYZaQIV6ypuLHlTGaswLIOYbDJSZCGQi/e1SS+QdmKpbizizPjEE5GLNI6xfu90ssaF4DpBSepEBQGyIlBhZZb+vjA7B47Izobili0grbwCXEhcZ2Bq3eQdlV5jVMQVfyqR8KbQTtOUFKhKT1d1KjPSYQOm5J2F7S0oKoKZZWXqdSG74Ztm/uCOtpobviuMvZZjRbmOxS+QkSYLsbc6wj+iWFNt7a44HkhuNNdrrNxHglmxQnCDQS3Gz4nnBcnQ0odiNRJXUmfPb9ECBuPvzUpLIWXXLgD8IfJqZUkwT00qK72o/KYikSUSm4yq7u74+uXYx4WoEq9u3w6WJyXD19j+Y2iBELIbngUeTTU3Ed4TgcxKrKgvsahIRpMsBDKH8Vw33jCOZZIbzScrsXIfCfa9IAQ3WORi6Dx+7EuEj35PSU2FmnjPzIXX8WLHDjAd/03a5PbgJgeAucLCVJ//TiZvL5JbKmkVldB1y1bogr8fjq+V5OfBsswseANJsJDdAAAPoGqkH8vHw006lny4AUxl3FWNN+IVdwDjgOMV41gmudFeB/EqEAjBjfbKCbJ/JrX0b+/dMqBts3SYePQeboUyORAqGOQAInBab7QQJKNy60SptRqOFcm1G7YiGIRdSSn0x5++Btmdh5aI+7ZsUR5esTCEdtKF1LnxjDTht5vFcPijY8meEE0lLLTvnNhtLd4xFpLbcG3Fg0Bg944QghuGe4X+QRHqGzz7mlLRU9q9YwocPbwVfP2/vSDbtQE/KdfD3c/UQWWltx81DJcY9iaJTN6wdSvMJbKO9oJgilnB9dWGmjMktdQT/dBXhIrSMti3rBzeRUWcbAyP4++PGxYGqisleAR0T244iFXwI2uaZ4aDmMSaPUHWWfjXdiJgLCQ3/OskUj0IwQ0x0soigLv9u3cgaJNg9T/lIdulT49+0lJSYVi/LHj0pn3gmFHVkJ2yGfvBH+Rnr8ztCDMW/AQP4wYq8q/Ge1mAF/B761bQc/OWoFVcwsBMdNmeQMeY0NKHcY0FYHSc7B55O3bCTfg7Ed3XUc29bes2UXQbucAirVzG+mM2UbQbuaB8nB4OAh+O0YZaEAnHGO3ajFdrgtX1xLNqGck5j/W+hOCGeIbojXHMiDx49uZM6H8Ohq1CpbU6BH5YunmQFWHKTUPglLGbMVTWP+6RG+xtV3UHmPLCT/D3pjoMrRX/5JZu9FWI2+2tWsJtQcwRR1GwUnF1Dy41TWotkVv6lwhtnaHO0r/8N/1bhX+nIdE9GVXlVUh0z0OSK9aFICbHdEokiF2sf2CFi+zHOqlv/OpJnBZiTfEOBNl4+QIRyDWpj1faAyJP69xUIw6xEIIb6Iq3qc/WgesmdoL/TcpUYVo3bNzUaHKrHvngz4n7tTCsCEhsTayN/rzsrj9h7ebEILc6xHMLCqEGLQKuIBRpT5KH+u8BqmlWcNn4wIRWN0KYTRH8dw0Rb1J7MYPa0xiu7MG2beHD7dthDqq6ciMM/M0ULmIX+EgS74xok3p5PyTemrK7okSwJpivTawK9YhE+14S7DtJCG6wyGnnkbqa4nLBVce3h5v/66ZV1ZX5aBPY2KjWWbW97IxBMO22tuCqQ5+tRXnl6y7w3uIfoMYmmUGjBhHFk+kDkhRSsgX0QpuC0+JLvfXXhhWx9SK+OCZSgInoluHYRmJosZGtWqlwZu9h5AUpgoAgUL9xLlawSEQCFkvYcnzrWBlTqMYRr8QuVNcf7+0IwW3kDCpyiwrjyL1y4Kbz0vBZd4Vq8Y+lJdDy8OAeb7AavN/AfHjv0X2gU96ahkZSY9zFaE14FK0JyY1yqTYShDCeTmT1cdzs9XiAfegit/677r+1atKs5up2BW5Hb8OFZLcSM6WNys8PcIRSXUcgEjaFeEA8WjgkMgFM1MfnsbKeE3ntxArGMo7gEBCCGxxu6iwit726ZMBVx7aFG87LRV9skSdY6/Sfa2Akqro1AUYA4DYnjGgFbz3QC6MjILn1UaY8vzEhrQn6JT9bUQFTArAp+AoPZvbfKo8tzaXWoe675ZfVZjPjRx8bKblEePfEuZYSHAJiU3DjFi0cwkEAxZ4Q3Hsh3s4Kx9qJRQzi0X8aizhGekxCcINEnJVbIrc3n4fbk4jcGqUOmdDC3zDbVoDmdJ3cutu0tiRwP+sKu8P7aE1IhIgJvqaBrm87ZjNrg15XJ8VOvaVzzf5bX+0x6WUSzHWJ1FKpDnB+nYxd6ggCoUYg0h/O8bxZqrHYB3rP1/trzLmNHXew5zcF9VZsCsGujuifJwQ3iDlQocBQUTx2ZK5SbgFKvFtBbrpsTSlUBeCJZb/t5WcOglPHrvc/qiQXvPz2Wlj1d5n/unFcg276FIXi0w4d4NAQXgdHTOAED1ZNc3QFPkbkmAkyx6kgVbe64QoI4UilqaaGQChtCvLhHLnVQwl2Nj74Z+Q6jHJPTUW9ZZgj/UXR1/RafRlqCl82Al3yQnADRQzr00JiW4JLU249TSH7KcNcC7m5OVBcbCK/Fv0Rue2DIcD8+W31U/8p2A1j3n6fMDFvfU0DKbIf42au/+C//nK0mcOCcToGqzS91KduTWBllsei7Ac03zYxcvUxZwexjuQUQcCMQLRsCjITjUOgKavWjUPO2dn+1O1wk7tY+aJIOFitNR5fuHFwNluxU0sIboBzwWR0LmYPs4tqsPLnFKiqchY2itt7ctJw3Ey22tFoiKzd9siv8Nem2oSLnGAFAL2hH8MMYpUYliutzLdibeW/tdpkZpcbTXltDWKbhF9klGprMSiyJ7D/Vj8cS9/yHS0mqdTkEQj1h6I/MhINwEOpikdj/E25T3/KeFMhd75wYNJL0SxC/X6O57UnBDeA2WMbwVNIRrNdNmQUrQNON5jp7Q3t6ozc0nD/Re/tsr+XJGzkBLsp+QojFRzqh+Caz/WVrpeIK5FYjpTQ4FxO+IAHiOiqTWYUB9digKTT040lFa0r1QFYUwJYflJVEAg5AqF+zByLSqao4iFfNhFr0B+5pYE0BXLn5H0l67zhshSC6/CtSmQ0FXfKP3rzUPBFRutqa3CDWTEk+dlVzxvKyHMbCLklOZG8t6FMAewQgqhWI6I6bedOnz5cX2RWHzwrsspjayi0doquk4smNXcLrg/lFxZy6wQyqeMHgVArjvJkIfxLTlfOYlHFDjUC4VYKnZBbvqZIkVx5H4V6FYW3PSG4DvBVylxKKhwzKl+lyfXkdbU598c/q31GNqD2KLyY2lC2n5Fy18E4qMq6Xd3hmc9+Cdp7G69vULqBzUT11pdNwcqe4CtkmE5qzRvKeDp0ddccQ5c3mFHdKso4JyVoBML9YRn0wKJwYqiVmFjxD0YBSq8uQ/2lQW+cMG53VXf1klltS0SyG2rl37w2AiG3kSK58j6K9js48P6F4DrAjBZ2946k3vbAR9oYusvHTifKYFZW5ieDGbYXDLmloc75uRp2YZrYQOPr0rluop7S6PTBDiALW5W1ebnQy8amYE7N649yWpFaPSVvIKru75LFLOg5D/eHZdADkxMDRiBWyVyovzT4AsaO7MYqNgFPcphPcPI43m4IkZznMMMgzYcAASG4fkAkK0FaagpMuXEf9N36V1srU3J8tkjtnbhfC3j2tma22cnsGqgsz1NZy/zZH5jMKjXB8/WWlAUMaVVDQa3c1I9Fx3i58dKoX8eYuLfZAGSOmGBWb31lMTMneuAuOMGD3qV5gxnZHJZjNjMpgkC8IRBK5bwxxCRSuIVTxbW6Bia7TUHVDdUchuLzKNLzHKprl3ZCi4AQXB940s1JxbsdkRewlcDKCqBHYFBKcIBlc0UrjJzwp639of7Dym2BOHp4K9itd2fVyzGjqpGgu/vctDMZdv6eBDOW1sEjMzariA/xUrbjWOsw3mSSTYY4IsG+bAn6dephwciKwCHBdHLLKjBvMLPCKR3XyVzx3ga9hEJJsoIeRAyeGO4P6aamnEfKp+mL6NIxneyGgszF4NINekih+JIkKm7Q8CfciUJw/Uxpjw4uuO2KfljLd8pcbmZnSQa0J2KMVoAaTFDgIUtIyHpjrFufERh8jQXZ10tv/aVqWNkMOCIDkdozJnaDb1/sBi6VgAKTRlBqNa3UImt78JMSeHfeTrg/jpY0fSA/U14GD6Wn+wwX5s+a4IWFn+v3KOBGPT3BA71Eam5uVlYcoRhbQ21qJMsp+uH4kA63/z4eyFo0SS7PvZWqGw/YOV27Uk8QiBUEhOD6mAl1I2qeDu3ztwVkJ+BwUfoNLQWjKlx1fHsY2g0z3QTCwIxGims7YFreXxvEvaW+6Ge/gfnuRBH5f2P7SMYt+iCe+8EnAOc+uRFqk+Nr6uka09PSUW2uhEXt2sFwGx8uq7es5Pp6o3E2M70OhQ0jLwerudSOnsEsVt64iTKOSKq3TZlEhHuDTCiUt0it6VgguXStZqLblNdnpOZe+mlaCMQXy4ng3LAiSqTRRYTRYVm/3QV7IZnNzMr0nEE3shF75rjT+lplPnPQ9m//5qrQYHrhUGMTRrSCtx7ohRYEG2KLJ634LgVOn7pVtXHqFAcdxlgVuvlXVaN+ilguwJ/hfsbnz3+rCKzWBntw2arg5PLZ2LEWLRP+xuOkvaZWJ5LqbTwRMK8vXLjuI/kloKmswVghuUx0KUA/p/kVottUVqFcZ7gREIJrgTB7bykdb6c85+SWmyLixPFQ9WQOrhofyRx85aBFXrcKielBSOz45sftqmgMY9GGABi+zEK13bAjGW55vFTZEVbfGO7lFP726RL/qagIuKNkU1Yy5W/UWrFSc+2iKOjeXfp9VaV7POF+BBzwRcf4CULcfE9QOGwKeo9NHX+d5PL7N1pvGV3N3fRQ4J850Rq39CsIxDICQnBtZoe8t+RlhSR65O/tYbU8Rdtu70JFr6KiUhEe2qQ2Yo8sGNrFT6YyPfuAqYPq1Dx4Y8avcNldLhUeTG1W65rhtiQQAbexPGzYngxDz9wEZYHzwZhds/ShRGl7a9CH68KIClaF1Fs7cmpFZDnZg05c7QAgzy0VjsjgwjlWG9/w39zcHCgulmgKThYPrWFSraREB4FQq+fxqjrSuIlQ6nhEm/jLF+XovCek18RDQAiuxZzSDWZA1yyf5NGSQbkAOras8cSZpXaIKE+6bDDGzkWC6ySwqjn7AI6vvDoHflqDD8SROBMxGDMgH2ZOMcitzZqsLQYYcX4JFJVUe1TfRFq+5RnpkG1BcJnrm4ksE1KPFcHw2uqYkP+WSK4nogIeVNET6MciRS+RXfp5NTkJHsd/hdw6W2HRILfxSsCcIeq8VjjIU7zaP7ze+xZEl45Hmuwy0Sa7gqxZ5+taagoCVggIwTWhQjcYjnuLD8OdkVIbkkzqLdkcVCpea7ERMNSBfSE2hkzt13U5UE6KsBaJoVOevSJMgvO4W5DcFhZDfl4eFO3alXCr/7mMTLh0F7J4U2Hvrb/vEv68tuwYsYqdq2cwy8Y5Kauwm9yEg71RF8QbIiOt3MY7AQtVuLBwbzRr1OKIkZNZ0WVyq6/VSJHdpj5PofgSFqm5ipFlK8OwQUAIrgUww/bIrk/JG8jSMZwM/EGenlzrtjlU+fBU6e4HK7JrMDUit0S6LjtjkJsw2xWsf8/zyTBvWaGq0adPn0CuIC58pKTSzti+HS6xiIfrJECFHfnV0/I6sSsQsKkYIqyuYGdAGDelyvxBE+pH4k0Fw3D7cEOBY6IqjdEmu6EgeqGYX7s2QvXFS28/FORe7jXhnPX4arvJEFzHNwtUcCcevQck1fjPWqam2mTPbZO2FeOiuqAUfa/HjMiHtukYYsxp4bZ0oousdnCHTXA1hhijctLYAoBKYlbWjc76qA4eencjPGyk5F21apWqyERDj+uqk0G+WWUhYSszQnA5xszp9YWoHo2VEitUZmfbxsP1lexB32BmRXbNr+kqrpn4Ulvl5Qlkcg5yjqwUk1j5oElUAhbkVIX0tHhXx52CYUV2w6kShoLoOb22YOqF+4tXLH/2BIOXnBMdBJoEwaU3i07c7KBW9dJdsOStEfXE1UpV9bPnbODu2bB4RQl065AFqRm46YgIKT3FJlJq/tdqMDrRRbaVml4EN52Xjhm60IdbU2RLbqmpZRsxyxcqm9XKn8oped2Zzdo2S1fkncvfq9bBohW7YEthpQofRvunykpLFRlWVo20VIwG4WCDXXTWrmWvOrG1Irmkgju9InM98wYzIrvr8ccq8UYMQRL2odBaaXdV97D3E0wHiULAQq2WhZOcBTNP8XROLIUYiyfcnI61sT7kcK3tRLmXOJ2HRKjXJAguLUxWJX1NGr0x9u6T407sQKSUilM2ZFRPcxXBe/d1AEqrq9TbEiSkXNiqqf9ro8R6+iaCjSQ3CRyohEkujLWbrWwRv84YBc2z6+PmqsxmRI6TDWUa68JYpHt1ObiBKg82fDZEeX1X/V0Oc+eugk0FNdinOwZnrCpgBag2t7FJ+GCV6IGVWcPa7LXnj17jH32N2E0/k90c2mimZaxLhJtCIl1DrK7dQDAOtVoWjU1+gVxvPNSlOdnwwB8SCSRMkxUsyZW1HaYJidNmmwTB9TyeN0I8Wc0VvTHS09Pg8gltwEWk1Bfx1BvQFVnj9VQogk6U0MEJOTbvTzL3a2VbYIZmvhDcXeaivvM0Us11iPHpsXa10GcuHGs2EvOhXUH9nDS2LVatgO//2g1O2K8FvPPNDsqvEHNEtyDFBW00DMz+W/6bLQYcWcEqVJiv968vP64EBYvdO58oLg3nJtS2kUT4AhHMChYiFQxqgZ2jk1w6026tic8/MFybUu2EJ7i0+EftlQffrizFNK/WIbOoDpHbuppa2K13Z4BsTJxQ6YSdGkvFahO9U4JsXm1MmM2v03B0u4QdyQ3B6iXCS4U2s+09qQ188b+xcMdjP8E3S90b16L9oaZUZRzHrNo6uIrGY7pmVm85za45yUMDjy2ezxvM+F/z7PMU6xEUqNvlmOThWDo/hpXuECyJuGwi2us0LkELYNDx+gVCf4Qd6Bph+1akI4EEMC0RrRpq64x58Gx/sltrof7C5gu8QNdKRCdCOrNEIOEJLl11u2Yu6NrO5dMrWYvktqa2Rj3ahxKkMXYE1UKxtUTWSeQo3ZOrN2JHcqOwiInsDu1aBB880gKuPbEjPDJjC35RqIoayaUbWrP8fNiJyR7+LkffsA0mnni4RgYzrkbkluLdmgmt3ozHyoCKv1WYMK5LxPlpTMs8Cf9NxZBwnL0uCtMkXZoQSEYfOqc+TRRwwk0mEgUnX9eh+8UDJeiRJFN8DbH8xTnU1hmn8xaNdRroWonGGKXPhggkPMGlG0R33OzVo2M2TH7zX9s10ODbma9NYXbk1QmpNRNZ+tuK0HJbOtGOoIprBoo2uN18XjIq3HurDWvuTWl29DJ8bzXqs6CwEFKQWI5DUqkXHo2/UGF6ODArYkvHA9DvVROUxUxKbCCQiB9GkSQTsTGL4RmFrt7G8uZIunom1LGeurcpfPGKxmddeN4BTavVhCa45JNKRZ/m8id7QHLLMkXMfl/XcLMWLd4qDDtFpVnJZoB8YxFYbQqzWh+BElu7NmxUYyZsisCZSW6k1it5dlHaPHXsevh7Vcuok1za2JWfm4tWEt4N6AZCtydYQaP8t0bGMt1bS6ouhZFghddl/M5t0KYyldLXIPX0exaur5073TFw0zF1sJTYQEA+jCIzD/GGczQU2MbORKxj3BS+eCXiF+bGrst4OT9hCS7dzFq0aK4IT8dmJeivBZV+16pQ3RSKG1uNj97bILutcLh1KFhiS5wszWIkFqrtKwu7wJw57li2pESffmI36JyFiSPYjxtGL26DERI7RCBvPs+FSu7AqJJcGlsF+l8rMzM9sXBprv2ptwQXK7hmqwKHEHOq4NJXIrr50c+mTfjFSErUEUhEa0LUQbUYgHzoh39W4gnjpqDihn/GpYdQI5CwBJeASktLQ2uCWxYl9fPovTNsNwMxIf7lsdb1Cq4vtH2RWyaw3uKid2t6HTPZ1SwLYwemwJvv1cB3K8uQvBXDzIXbYMKIVnD5We0hJ3lDqNeDs/aQ5J464h+l5FI64hpD/XZ2cmhq0Q2VEiz83qE99DJChVlZFHx5aO1GQiSYvj+YBXyuzyHCsjDRREUCpkEOzQxFvpWmQG6FSER+XUmPvhFIdBU31lV0WZ/2CCQ0wa2kx9fak+Oxg7NtbQoUB6tVThnk5PtQb50otkxqfZFbng9fdYy+OsMaFVf3zcXN4NEXf4K1m2rhoembVYKGqbf1h865qOaGWMWthjwor86BnSUZsGGHe4msQs9tb7R4cOnQgvTLv8CVHHkfLo1Bqe7ow/2oXTvoaXyBsVJvOYICj5tUWp5GPemDOQYuO0GqbHzGTHLl5hJ9BFhFT7RNZWZkY4lIyId+9Nd9rI0gEb98NYUvzbG2jkI5noQmuDWmLFw5qSUwEG0KVjtTXejVpVLlyoPUciOOrDnzmBXyTtRafzOmE12zmotjoPGcuk8RTBi1F1x2558wfUEhLPylGCZc/j3MnLKPm+Q2shRXd4AZC1LgH8xutmbDZvjw+7Vob61UyjfduAgfwrM+pnAyJLvQk4qsMlo7fflD1gnF9pfkwQo+80Yz/e8U8uxKiToC8gEU+SmIp0fnkUcndD3G05cIXhMUPk3fyBc6NCLfkqzzyGMe6h4TmuBWqnS1AMXV2ZCTUqLI2iPn2G+QWrOxBip21EAqWXWZ3CrW6wd2J2qtk5mz8uXSecbms5yKDfDozT1g0zWrYcmKYiSi1Yrkfv2/vSC7Fu0KeiIHJ/0pbDrAlOc3wsLfVsN3q8oUma1B1pqE/I02TqUgsS0udqvadOPKz8tT4dS4kA2EwnYVFlkkl3A4hmCq0Thpo9mnHTr4PN0qyYOZuJLnVqm5xsYyX9TVvRURgBTcKkxrzLjE04dRMHjH4jlNldwmolIWi+srmmOKR3IVS08YQjF3ck8PBYrRbSOhCW5mZgb8vblEkVsuuajiHj0cvaP4eLsGd8FzqUVSV1enpQAIB6k1hx4zzz0TZZ3omkKI5VRuUJaFyS/tgikzt8Cf/1bBI89thGtPy4NkdBCk1JqIplXaLoMIL17bCy66bREQsa9DLJIJE+NLgdWypDd8UYx6TvVIE1YElWdWDxHGhJautUHyBwch0Lbm5CjSn5pKGxQDDSwW3Td+vPfelMktWTHaXdU93qcw4uOPJ2UxnslVInwBa6r3l4i/KcPcYUITXMLO5Wp4iZcdmQXvLXLLonzTS0YvqSZM+obdqS3BiiTrr1nEv92FanNhAUCnNvZe4NTUIrj29Dz4a0MpzFi0S3lyX5pbBaN7ValIC7QBLa2mGNKSbdIFIxcrTuqgyO2f6+sH1KN7/H1odje+lJA6z1EU+Hd9Epnnq/nWyKvuw6X6gYjgRUbMhqSkQM4K8zu6CTQvHz7RneR4JF/xFCIsHtVbXpGJYFWQ+0t07y+h7D2hCS49Yi/AjFfrX+npreJml8CkY1sAxclt3qyZShyQnIzqJT7y9lvsNpFZJYagxsw+Xv5b36JvWBCIoF02bRssW1uqxjdujOEuNRNhHGZaTRHcdkU/+Hnt94qkbtu6DWbtdOF1lMFj72+HI/fJhLH794aJ+xZAmquhfYAIMPmRk5JK4Q9Ugals2IApiuOo0IdWR7YJaOP2peCaL4/j3jLpVX+bKpk3lHH83AysSTd0yuwmJfwINJXNZOFHMvge4pl8BX/VkT0zHr9A6AjFM8kVchvZtR7u3hKa4DLxKCwGyGmmQYkk9cjRACfs11KRWyqUZtWFJHfdunLo29sEuxOPrZ1n10myCKNOErZBocxm4Cay22fsgP2HdIGcLAsllyMspK5RIcMefnczaol10Lx5c8jEuLDr1v2LbVTCZz98D2/2yIb/m7AHblL7pz79MJ6fhirwczdlwnfrB8Dnn/8Oi1cWw7ylhV4bBGL5RsvWgNL0+sgOTt4sZFEw2xHMmc2YILN/lzaUVWDq12BCjjkZk9Txj4B88HhjlAiPgf3PetOrkSjrPB5JbqJg3/TeNfZXnLAEl95gO3ZQlinrLUNJSFqPHpzuSVZA6i15cL+9t4sbrcbYEBqxwvbfOwdj9+5Q3to5S4ph3IGoJxKhtUrniy9T4ocH39moehy8Ry/48LXHYEfBLrj/8Rfh4WdehkW/IruH3yC/KBsO/U++Un5VMUjy0C6rYegpACXpPeGJW4dhbNt1KgTZj6tKoKSiXtGORbKbkpIKrgBj8FJyh2QLkutvylx4njlkWHN/J8nxRiMgqm1DCKO5mScW7wONXmQx0kCiEax4IrmJhn2MLOmoDyNhCa6ObNHOcsxm1hBrtwWguSK5q/4uw81CqfDSxa1RwcXXaaOXvzi1Nql1g55VJJ25UOJWZdFX+94P5ajitqpXcS0ynbXN2AbHjMxXqu9XC79TfL5ls1yYfMslcM3Fp8MxZ10BC79fCj+gQnsktkdRGHJKMOICj73cPdpsjNBwKqragD9VVR1gc0UruPbEjuhV3gZ/ra+GKsO+ESsfcKTgpuF8uUrcCrfuwfWFv1K+gpggPa1vEKfLKQEiIMQ2QMAiUF3sCeEDOVEJlk5yCb1Y3OiXqNiHb7XGT8tNguDaTgcS2HHDkmDpxpYqiQFtNFu6MRnGVfqgQOZNYk7mWo+O4CuDmdHWMQOSUZWthZmLd8FVh+fAHmbLhDaGtKoi5bWdseA7tZO/vLIKMtPd7LVV8zyY/fazcNH1d8Mr0z+EDxcXwqarV8Nb17X1tj6YyG4qFEGnlCKVkve607upJBOj++d5VN1ok1xlT8DUyuOQ4JqLeYOZnujByl/rZPqojpWC6/RcqeccASG2zrGSmomBQKITLHpPb3pojSK3sRYnN9GxT4x3SPBXkfAEtw7Df/2xuRr6drNPB3DziXUwoH0LpZgeO9C8r14DN5C9RFbqr3mDmlVYMORsec0NXyneEK55vbAhITXNd7Oiv21XQFpqMjz70C3QrWsXuHXy47Dot1KY8kEpXD4OYwOzv9d8XcwbSzAmMJLdU0cXwcRhHeCnje1gzIB8+Aa9utEkudQ3WUqebtMGYNs2de12X0mC8c3arRQiy3oEhnwtzFzwb0E5k9dSIiqE+rWFeqbFh+tOQkPF3/0oFpXDWPwy5xTPYNZyLKm5sYy9Fbb+1ncw89EUzklogstK34uXIBHyVUjJRbvCuDGZaEtwEEnB3JZTv67dGEzn5+cA+nBTYQ1GR1i0ohS+Qi/u+L3xRp5tfxFJuAmK0g2XlpV7FFy99g2XnI7hx4rgkWdeUfaHAe1bu6M0cN96ZbPfF20MRHSHtimCN+/vGRMkl+b2QJd3eC4iuSrzmg3hpdpUx7zJTL90qsPJHOzQJjWXIytEK4tbPN+c9Jt1vJDaYD5gwnlt0fDhBoOB03UaTNtO8Y21EGGRIFfhxNPpnNoRNV3NVeJEBLNCRgJ783U7mQuna7kx2PO5TsaTKCQ7oQkuTSR5R3vvloFWhBZ+Sa5lBV+qra7SWii2/1Zlw4tz3Nmubv5PQ43xrs+T6l/XzmcfLm0eowQM1762FQb36QadMElFg4Je4YK83bDeZqViZGFyC8vFiS/eef2F8MvK3+GzrxfW+3vrTG1ykgkLvy+1m1O3AZ6etJdnc16wb5bGvFH5i8uGFu459ZfkQe+LzuVNZrThTFdkqZ5OfkmxtfPeEgmmtlLQKuEovFxjLriR50ZjjuyGHMkbeTCwWWEVy2OO1NyGCoNo4WvVb6SJFa3HUOHoi6yEuo9g3kf+zqExmomuupeHgezqqjQlSQlnMa+zaMyFr3tCNMYTTrz9tZ3QBJdvKLSBbMOrvbxi4foERo9pa1fRl2pbATBrdR1M/XIz/Iibu569qC1AhfeD7w/w+KLfMMLBf1Cu1YvRrtuH6z6wZWcdTHptGzx6Hm4407KyqYNY35dFQW86LdUFb0ybDEecchFMX7AMumFSiJuPxBo6mTXbJsxqLv7dOWsNXHrGQMhKc0FZlS891N/yC+64+uKC0RNqM9xkXldsfam3NFI9JJj+OxtTWBP2RW6pT3rj7Cpzb0yM5cIfJLE8xlgZW7xhJeN1tnKscPKl6jaWZEWK5MTb/FvNln4NVnMSyFxE68sTX1cszEcsjMHZuzIytRKe4Cq1D7OZkU1hHD3mN/MRuwQNTpRbmygL7yN5Pf0xVFRxDkf0y4FxvbzJLSmOT39ZAouJ4AISXCTEkK5NOLbr8eHiy5RGeCkmf1Bhw3BTnCqm8dHCPubwgyDD2GBmt3xyszPhsAP3g8VLlsF7C7fBmft3gY6kDJNya3XN+uuMHdajBBIPduikvnFHSkXia6I+x6Jy+nUQ3/ZJtTUT21oLpdaJd5fi4xLRphINHCJzi5BeBIHEQ8COCDTWztDUFLJQrgzznAQyF4J7KGcicdpKeIKr1D60KZwwBjODDdMe31tFQ3BCau3mHknq+uRseAEtCQ++s8lNevBn+B65xm/1J5J6uxDj09L+iJLyVMhOwo5NJJd8uHqhbGW0CW5Qn1bQCTOxcdmFxtzbp/+jyPTAPfs0yMJlHi71efGZJ8AnX34N3yLJpfBhHfey8OIy8dc9upqaS9wyHZMsUDSDaicZ4EL8nhmQgwDt2uVp1U655QpWOrOZ7LJlgdryq+AayR/ycnMUuW3Xri1s3rwlxFcpzQkCgkAkERAFLJJo++5L5iJ25iJeR5LwBJcmht4ob3+9HV67okO9Asozpmcgs5pFX7FwiZQahUjr0o2lmFVsIz62Jl8mUipMHHHFGIK4njkT6Z2K6q3lTn0mufQvKqfJSckqQ1nr1q0wWMB2tBW4s64pq0KFm+Su21wOaza4VcQzThznaB3m5WTCycceBYuQ4J7++Gb497HOkJ2BY7SzJ2gkd11Vd3j57bW4+W0TrF7tHk+kC2F3T4oroG7JemBnprDbfEY9MKfnjWc0m/omtLy8PDWOykon6e4CGrJUFgQEAUFAEBAEBIEgEWgSBFdtBkLSOWF4HhJcjJTgJJatVXQBHWSN3Lr9tiVQl9kdHr/3v9CtUwcYf8bFsG/vHLc6qxHHu79OUuotFSJqBa40yK7VBmSQ3NxdJXDlcW3hoXc3wUuP3Ak5eTlw7e33e7yzlx2ZDUmFlTBjabVSEI894mBo18bPRjpt/KcdfxhcetPdKnvbP0W10JcZN1klLFTb4tJsZZGY+tVymL/cyIYW5KILxWlp5fUTQF8aatALm1zVUILX4+Ca+9UDwnltLsOKRG7pNYqYUG6EIuLXuB2yKIwvcJP8cm08obg+aUMQEAQEAUFAEBAEgkegSRBcNzxJ8NG3hbACEyf07eQjFJifyAjKSqAVIrfnPLkZBg/qD5eefSocf8RYzPy1GWow6cL5B2JcL609ImILf9vl2RRFnFJlWcs3TaDRR//2tapuLpLbYYP6KNV18Q/LVGreh3ADWl5+HhQWFimF+orzT/drT9B7yUxPg9OOGwcvvf2+ihPcJQ+Jtm6V0NVc5I1zfiiG26bvgLUbgwijFvz6tD2zEhXcZCS13zVvDq/jZq+pJcXwOMbFPX/LFp+ZyvTNZGZSS52pMGKm6ArKemz4dIkw05uGoitUYGi2sVlZCv8yHIMUQUAQEAQEAUFAEIgNBBKW4PLuSxUXFf9TXV0FvTtbh9DymZKX5slEannqfi10oXJbCNW1SR5yi74C+Gzut6rPcV0bRk4g9TYfiSmVIiSnKglFJtbj8Fzauti9DU4PNjRn/rewLxLc8089SrX72rvvw0K0FxC5pXLsEQfBvgP7BLSiqJ0Txh8KLyLBJW+vGiuPQfcDI9GlcGczf9gGf2+ujYrf1nxhREI7u1xQiap8KRJaQnk0XlAbigXsp+gbzPzVpeO6F5fUXA4bxrFwKTSxbDBzgqTUEQQEAUFAEBAEIodAQhFcT0gRJCK9MPbt0cNbYUKDWowhmwO0aeu9mzBigLZByyex1f2wFvNRXJeKWcZ2qk1at117CRw/bn9VCwMewJq1/+DmMu9dYnVIHtl7+9+JE5RS+Mi0l9Rr487GujaWCLIQtGjeDJKoYSTP551yFAzo1xvufPAp+PybRUo9fOSOa8zhXB2toMED3DmAZywshOf+D60betFI7ktzy+D9RbtigtzSEOmad+zYqYhlKhLdC3Nz4ZKsTOi1aZPC1deGM6vYt6pNTbUlmuxkoxmdl4cb7FJQSa4xoik4Al4qCQKCgCAgCAgCgkBYEUgIgktEh8nOhJH5cPTeGTD3ni6YlAA3YqUiVanCf5H55OiZwOz2BOlqrY1ySzMy5ZtqWIxq7O3XXQKUJcxTcCxPvPAGjNvHmzCy9/bME4+C+265BLbvLIKHkeAuxFBhJanNIZv8oyaS+8cWbTsTklsuQ5GYvvfSFFj9xz/qpfYBeG/11ZSmx3C1ShusIkPkwP1v/Q73h3UZBtZ4LSa/YGK7om0b6EXRCzCiAid8sEvby73oG86I2HLiB92Ty1qw8t1SODDNh8sbzciDW1ZaqiJJUBElN7B5lNqCgCAgCAgCgkC4EIh7gktkJwVVvN07pcJLl7Z1p5+lAAOcocu878hhVARbwPH8WWvrVCiwkUMHwHUXneZdlZ70m4L/E+Fas6FUEambrjhX1W+RnwsjhvRX8Wi/+r2ygZ2ByC5ZFFQKXlNJRrKbhD979OkakO/W3E5udoYRqUFzo5pI9o+riqFvFGLd2uFPmd0OQEI5H/22w9GeoIcKszuHN5oxsVVKv0FYdU8uuYvtFF7y4erRE4jckl2hEufnnPR0RW4zMtKhokKiKYTrZiXtCgKCgCAgCAgCThGIa4JL5LZXlww4FlXb/11kKKamzLOeNK4hILYEajGS1/d+KFJk9al7brHE2YUboChLGCeR/QAJ8QwM8UWRDrp2aquURiKpk2+9BsaMPxXDiyXDAT1T3CouFYNk/rG2WhGuHTsLGvRjGWbM6azr9ZJwNPj/Erwuc/8c0uzcdPS6VkZ3cxmr9LdjyLS3MUVvGyK3psLWBMaG595J0gZuSldxOWoC+3CJ1FLxqLlGLFzagEa2CSG3wSxAOUcQEAQEAUFAEAg9AnFLcInc9kZyO2FEK7h5gkFlkB+q3/A/xUnZ8OiHpUo5pXINRU9oYyJpPiwIOtHUvbpfoto6E8nqHWhN2KM3Kqhmpol912IEBfL+kpPztzL3RrSMlCS49YrzVLN8yt579YJhqOI+8u4vWL91QxUX61IWs4KCcIblSoJ0V507VJjuqkCSvbIsBeYtK4x4pjLzMldh3shri8kdHkUrgv+tZPzVwt2SOVSYXSQFVm+V0muovFYJH1KNY6ToEukdgP5fKYKAICAICAKCgCAQOwjEJcElcpuGO+hfvJjS77rJLXGOlf+mwAMf71Jpbf/agOGikEm6UCmtxaQLE9CX27eNxkZ9kVv9Mb3mTf2twIUpeNfDiH0GqKQKDcitMa91NaXIsXPUhrMHPy5WcW+vOu906IeWAr2kpbrcob/QpkCbzQ44H724lW4V15MQAsffvVuXsK6YKowCoaI5aFEfqH/C8r2bXVCDeDsteu7wUKXwpXZqcDPX6vbtIFnLXtaACOMLdiquuS5nMdPJLtVhmwIp9KTg0t/qd43Uclus6PbzZ/p1Cp7UEwQEAUFAEBAEBIGQIBB3BJcIVFpaKloAUuDIYUmwC0NYzVlcDHfOLIBVf5fBe7emQp2ROpY4SW1dMiZMaAfjehksJFBiyzAj0f0dN30RgTrsgDG2G7vIG3vu6afBGU+8jCwVyTVGQSCCdgGmxzWFV1UtnzXxSHht+vuwAEnuI9/kws374YvYV0ltqiLGRK4oakK4yr6D94TvfvjFtvlASCrNTWamW80MR2zY7cYU1qLvtTojAwowBm2BkdGMjrU0vr90xI1fmcXoVXFAzDmZgx7+i765ELFlr67uy2XvrYqHi/XYlysbzMK1QqVdQUAQEAQEAUEgcATijuAScaqqqobR/fPh7CcxfNVijINqvEaXX4UpU1NwE5KbcIDKBnbzf/yQW3/JHRTZAVRvN6u+xh+8n7IOkI/WXOiVCRiXlkKAUZpdKuS93Q29t1a+WVJxb7n8Ajji1Aswa9lGOGZgR7QK1MDfaBmgQi3s1rFN4DPr6Iwk6N29m1KQGxTsOJDQYIx3eXm5qSmKcOEmvI0phMPr2Pba9u1hGvpv55aUAKHS2vDF9tIap7Hsj2vgcyTbKaYEDLzRjMajvND4o8wkWjQFboqOmX24dEyPh0uEtwD7GIv9fW18sWrMdcq5goAgIAgIAoKAINB4BOKO4NIlEzkhb2gqbowissvkiawL+Xl5ityO7JcDD56U7/bd2qm2/tLxavh+8LebrF557mkNrAbmaRiwRw8YjjaGRUuWop1hILzw6O0+ox38Z+w+8DhuWLv4hjvh6tcLoV0zF2wqqFHnnHHC+KDDgPldHtjBf8aOVMkeaKPbuK71z9pXlqdAlYPYrmxJOGz/UTD+sANh1JAB0K5dS8jKRIW1cBfM+nwefPDpV/DxV/MaRXJpjh8vLFSXNJFILf54vLkYB3dEdrbKU9HBUG1pI1rKzp22EBChVXYGjXjrRgy2JHA8XPq25MlwZkRQ4PpUtz/6g6UIAoKAICAICAKCQGwgEJcEl0luFUYd6NatK6xd+zcqqrVIrNpCMSp7RG4pTW7ffOud/0TjPHqig6hOVJ+yfZFd4LTjx/mduayMNHhr2gOK3B0ydhhkpqtkr7aF2ierwuszZsGi75dCGsqGFTh06u/yc07121/QFbDjPXp2U1jwpjhu6/fNVTAKVclqG1WSoxocfsBoOAMTV1Bc3lQXap6GokqEMBPj81JiimOPPAD+e9Ix8NzrMzzhuYIZsyLT+DMBldljMPnFobiZrxK/5LjIl6t5c5mmB2qN1ePj0vjob13F1cesCLB7ISqbwm5omZAiCAgCgoAgIAgIArGBQNwSXDe3SFLklogPEd3t27fDMRgyzCtigqbeEiX5cHWdIqvPHet85/sKjITwGYYGo4gHvXZ3tuGLki8QuXNSiGCSVWHmC1Pg/sdfhIefeRmV3/7K62vemOakPad1qF9SW5OSkhsouMs3uWwVXLdyit7mc0+Hd59/CDJxw58qTPr4d4MDtsKYv9MevBnuuvFyuPneKTRzTofoqUd9jsVICje0bQvv4hcbFyZ3sGqFv7zo/1IjeiQFJrLmDWas0BJ5pS8X5hDK1AYVDhPG7dLV74ljkyIICAKCgCAgCAgCsYFAXBNchpCJ7ui98tzkthPKn6TMGuSWaMmKQpfn8T/Vce+Pd1YowkB1VZ0inKkpToJUOWvXXKtls1yYjFnObrv2fKhGdZISMYSlECAGWcvD9G777r0n9G+/2Yt48uN/qwgK5F59/N5b4LyTkcBX44P6GoPJsie5Qeg0sgMkwQ2YFOOpybfBBdfeFrhdAcf7bJvW0HXzZhWay65wFAWr4+ZwYVaxIWgt0eu6/YDi6OrhwpQerym49CbKdLChLSxzKY0KAoKAICAICAKCQAMEEoLg8uPy4Xvkuj23GrndVZcKl73pjiNL3lYVLgw3cQVSlqE/tRJDaQ3p3y+Q04KuqywNfmwNQTXueXZfTxDTMCLBYQfuB6ff/zgsvMu9wY2L1cYwyiR2NyqxN1yIGdyqsK6+eYziolGxIroGITzzxCPg+HGHwLsffu74Emh+L23WDB4qLoY0H+TWcYM0RKMyqba6D5c3m9FhOkZKrpdNwfDfmvty4UYziaQQyAxIXUFAEBAEBAFBIHwIxD3BVUojhorqgWHDvp/U0gupX1G1veb1nSrcFpWrj2/vtZEqUFh79ugc6CmxUV9TbBsMCEnp+IPGwN0PPg7Tf66Fm4e7awzoUKcsCryJTEUdQKyPH38ovPXYXajaosZJgYaNSBGedonwMtFlsqspumRt+O9JxwZEBun0kygigo8YuNy/7q822xT0a7dSb4nI0jlM8dnC4EkAQWQYvxDwBjRScSm8GKm7FehVzkE1vJjCk2FpbNSI2Fg4MgpBQBAQBAQBQSA+EYh7gqtgR4Lx8gUUNMqgJmhN+AC9tk9jBjEit0SQKJ3vzcMD3XZUP6nUxqatO1Wq3bgrVqqnBkXvbp3giEMOgidmzoYrxnRWKXuPRKuxC8lcWnq62rxHXmfCQGVjY0sC2U69IDURXp3skqqL/yfSOHbfAUBRFz6du8ARlESs+5eVOspg5s/da7Yp6APgWLh63FvF0fGHkz6YjzHZpZV3pitFZVzLy8+DnRbplR1drFQSBAQBQUAQEAQEgUYjEPcEl8hP946p9b5bhISUW53c0saz/wWwqcyMan9Mu5uaXAdz5n8Lwwb1aTToEWvASrllQqqprKlIZIm4zvh4NiabqIZjBrigD1oVsjOToaikzK1GIs533XAZ3HD2yfXDZ6LreYUUTooqUAspSAuTEDNVmOga1oXUtBQVecFJofmlqAnTA7AmsHLLdNvKl6tHTPDYEjT7ARFX8t4yoVUJIfCH/rVK30vX0hXHWY2hzDIy0p1cmtQRBAQBQUAQEAQEgTAhENcElzdCEYFVvlssu8pTlS1h0W8lnrSt3Tpk4ZHg1dtxuyWpsF2ffPUNXH/x6bYpesM0R8E3a0cKdQsB1amuA1JxKQXxQ+8sRSU3CTJy8sCVloOb6tyhwgg9Sk8MVcbDfZe3VlqOdb75aTm8PetTePndD2ACxsRVVgbFLvFsk5p7wOghzq4Lz70O/bcuTO7gtPDIPJZjPyfqHlyuyhYGPdKCSttrYVOgc0j9pUgK9GWgosJB7DmnFyP1BAFBQBAQBAQBQSBgBOKa4NLVutDTeTRuHKNChIY2lKkUt6hKEgEm8nvsQKYpAeOjTiBuRv7dh95dBr+uWgt79ukaXEORPMuKz9NrTG6Z/Br1UnET3UuP3QOXXH83fDxnvhopk1uKMfzf/zsGnr352np7gnYtRAYvvv0BlTBCkUsELD8Xv1SQwushwgbJNc5rmZfj14dL80fJPErRJtGY4jOyglo4bi+tXpTCi69X4zri31WyB03VNY8pH3GSjWaNmSk5VxAQBAQBQUAQCA0CcU1wVYpe3Aj129M9EY0S+GB5HcxYUIjeUYrhWoWPijMU4Qo0aoIVtMcMSIYnZqCaeOfD8MErj1qm6fWcZ0UudZblzyja2Lm1sibodgIitzxGfh2Jb7e85nDfLVfC4eiPJZKrlFusm4Yk88fP33aPijaXqX/xB79c1OHf10/9nyK3KWhBmHTNxXDlaSdiEAhcWrpSrIhuvZJLQzgbSfPzb860JIW8ue1IVJBTK+xS0fkGyhex1c80R1FgiZ7WF1kU6DiRXGrPzsNL9oXk0lLIRJtCw3TFjZ1QOV8QEAQEAUFAEBAEAkEgrgkuXSgRoXwMa7urIBWmfVWgrr3H7j3Uv9W4WerovZv7xYOfoPuquEdWDTxzUVs488lF8Ozrs+Cck8a7Sa55275dIzrptXNLhIL46qSSx2JFbjVi6yasOCj82bNlWzfJxQxlnxhKLmWMoyQNzQ86CNq3bKGYnhoqktsS/CLxy4rV6m8itzecPNHY66fFKSCcPGqum+SSYDpkUH81f6TSVmtpgem1rKwsKEXC2BnV27rKyiBSQ3ibUux8uGblli5L6f0GqdXVW89mM5Paq085PVGQIggIAoKAICAICALRRSCuCa4it3l58M7De8OEq+ZDSUU1tG/fDlatWqWI04QReRgWzJo1UnYyCotFKt1D72yEK49rh8kOaoH8tnb8ZTy2dcUx7eC1d9+H/v16w/ABvd3+BV/2XrMP1tiwZdkJk2WdNAeyPuxsCdwGK7c6ueXfNRK8Z14bmP7kZHhz6oPwIiqsX3yzSD3Gv3Xy43DM4QdB184d4bTjjoR+SIY/+u57mD3vWzjmiIPghoknuBVeInlMaPUkECaSOwozw1FhtZaHSXNShnFlqc8jsrMh2UF4MCuY9Jlnus1JG+hfLpYJHyxsC4rT44/alFY/WJWqlzalEfz09ECKICAICAKCgCAgCEQXgbgmuARdVXkpXHzHYkVuiRht2kQZudzFanMZkZC7FyXBXxtL4L2FReox/OQ3KfWsC9KQm1QigyGyS5YEUm3NhUjwQ+8sg+vueAA+e3MqZKapvFbeaWrV3zYTq+RiPEZKq87AmHCZd0Y1VtXVPbfUth25ZeuBMez0klo4fsA+cHjfAbB81xb4CiNITLr/CZj5yZeKkD487SXP8An34448BCcDO0gltVbbokXWBBuSu6us3O/qH4zqcWOLTmDZYkD/VqG/1lys3NpsYSBi6yIfLk0f/ksqL4+Ofq9GD25mNm1olCIICAKCgCAgCAgC0UQgrgkuEatSZKRETnlDVD2YdQ02lxEx+e/0Mnh/0S5FbLlQO5ySliMzPDETN05NaNcgdi6puC9d2hbOeGIZ3Hb/VJh808V6l87m0orE6kqvj0fgth1YEWova4J2JpFeXbllQkoElQul4MWSnZYGw5p1hGFHHgOXHTYO1lYXwR0PT4UZSHRJYVViM/77+9p/oG7vfSGJ2/AQXROJ1OwKS39dDSOOAJWow6rQXGRXBue/1duzsicQQSXVlYgp/0sjJTWWCl29Upa1udDtDBwqjL7e8Dmi3Tpb/lJLEBAEBAFBQBAINwJxTXAJHJ2cMlhMUtc9hpnHKJ2sQViI3H7ynTe5NQPM7XEbmOC3Ackl28PRw/PgyedehsvPOxl9qRY+XysvLHfGqWw9A9ZGoYfVopeZc/pRcolqJtn5fJk8E6kNgNx6SDCNA8/Nxui2/aAZPH/ttTDlykvhhS++QJL/hIo2MAntC0uXr4BH8PUOec281Vz2pWpKblVdLcz6ZDZceN3tlmG1KHLD/rjB7Cv8cQiB5XvFzPvN1gTeROYhtQahZVrOX4PYk2sOAKbry5QYoxL9wlIEAUFAEBAEBAFBILoIxD3BtYUPmc1Xv1cqD24xbmK6FMOHmZVbX9AT0SWVNy0lFQa0b+Xl5SWu2R1j61bUFMGOHUVuguuL0Jp3sZnr6oTXw8iMX8zWBQuiu/CnlXDd7ffDYQfuB9dccCompcBKVtYEvV+1qcx4eM+qq6HamomtF04pyUh08SclB248bAJciqru2fffj9aF2SpRBI36nJOPg4O7UUIMpIm6kqvZFZas/AO9u4utSSltPENie2FODiQF6b+1m1urKAhmpZYtDWRNoN+VNQH/rdJ9uzYqe5kD20V03/LSuyAgCAgCgoAgkPgIJCzBTTJI465W2fDYhw1tCU6mlkhuJUYJuG5iJzigp0ulsOVCXlxPMceW1Rv32BE0LdFMUr1MosZBX0RXO78SFWoit4uWLIPFPyyHA0btC8P64+Y3Lrrvll4zoiV4jtuRW3OUBRvAcpD6vXXzzTB19HC49Ma74KPPZquaOeefDsPb7Wby5SLhRZJLhHLKtJe9bCJ680pFxy8Xq3HDIBNcvmQn++/shGxdveX+rDaYkXrLZJZ/V5YFB4tGoig4AEmqCAKCgCAgCAgCYUYgYQkuqYdPLWwLry7NUeGu7g/G14rgE9ma/Oa/iuTeNKx+NnZv44YuOyezfoOZPx8sJz1oUE9Ta5kss6prMDqyAbz74RzV53FH7u+Jw0sqM5FbLruKii3V5L+2b1cUrX1uPmSQskrqrS9y60uRNi/K8ho4f9+xMPqLAXA7+nNnopL7Hnp0f/riHeiX1Qpreyu573y9QB23Kpwogf7tWrTLU0W3Kfgjuey5NcOsq7d6pjK1aQx/yIZAai17bfk1HkTDLYf1V0DH6jAGboXCWYogIAgIAoKAICAIRBOBhCS47gQQVfiY2x3hIC01Tf0dbGGSe+2JHT1+3BlLayEZ+8nNwV3zmOpWZezSN3VRZ2aSSH+b/bd0nq7yEjsjMq7XxeP3PfWyCtNFh//8+xK44ZLT1eVkYBSHY484WJFKOi8XM4TRbv4UihBg9F9eWQUXY4ayzzHc18Gjh8Go4UPg0uMmQA56aj1FV3atxu0LPMMSQf7cSVeer2oSgX302Vfhmcsud5+JZLou3QXPfPwZfPDpl5bqLZHajIx0DBFWDpdhet7HMVSYsghofTO59UVyzWSYT/en4LIf15y6V6m3xhckFT0B/zZHUKDXf6TLDEHUh2DXqZwnCAgCgoAgIAgIAm4EEpLg0oW5PbS8vz000/3Iu5sxVm5rFSuXUgGTelr62wJ347yBy19XvpRRD9lFisYk1yBXa/76R7VM5O2Tr76B6y46TRFs+nnj6XtgxerzYMPmbTBkj93d5JYLjisD/az/e+Q2mP/tUhXXljaELVj8A7x12yTIoTS4OjHH8dWlJmMCB/dmqaLqcvhl8wYoMNTUZnm5cHDb3RW+nqJdE5HcKy84A9Xmz1WdT1+fBgf33AM2FBXAlVOegHc++ExtLLMqVL+8vEKNf0XbNlBr+G91wsoYOIme5s9SoHtt9fHw60RimdzqVgadKFcbOKRgYop3t26FKxFrPUKHv+UgxwUBQUAQEAQEAUEg9AgkLMENPVRELuvg3Ke2KOJG4ck8CQrMm7ecdk6E1orwKqJbr/aSsti9Wxc3qcTf27dp40Uwic7267Ub9OuJnlcq1KbJXNo+PQeOHzYMxo0ZDpfc/gC8gKl1T5x0Gzx76w3QIT3XQ9CJ3J54791qwxg/6k9OSsaNa7VQVYupeTH6AZHvj155Cv7TjlIkNyz7ZreHay48Cx546nk49KTzVIVOOO53DhznFxnCdByGJuu5dZsjz6u5QY8Ybjpgpd4qsmyQWP133abAzdBXJWqDlVzz84DXUW1eaGxM9HuRUkEQEAQEAUFAEBAEwoqAEFyH8JrDkRERO2z/UTDjqfsbWhPMVgUnfTDZ1dPacjIIJE4UHWGf/v1gNtoMTjt+nPKKurOomXRKX2Qbw3VlVNbCI9derkb0IpLcSc88B89efoXnGpJw7IP26ovZyxaDC+PTlpSU4GP3aowYAbD77t0Vsf7jjz9g3GkXQcXnn1teWRKO4dRjj1DxiSm+MKfeVdnJfBSVtpejJ2C4LbMCq9sS9GP6BjQnUFttLNPPY08uYaxIrYG1IsPk0TUUclJvSeUtzM2FX1C9FeXWCfpSRxAQBAQBQUAQCD8CQnAtMOaNTlbw8zHiluMPOxDSa/AXiiHlSZzgjz7prTbMpOXVp2ZZSEU99eDhg9SPSoVLRSezDZ7ZGxTQQiHOqXXBI9dcBi8hwX3xnVkw5cKLIBtfUwVDhd1w8FFwwyFHq/Y31JXAbv85WpG8Ab26wltX3+CuR0Scw4pZANXP1QJOP+EodZ4n9a6f9axsJdXV8HuH9sqewGl19dPMdgU6ppNdK2+ulXqrbySjNtiOoPttPXXYf2sQXh4PWT/mZmTADCS3c3HcUgQBQUAQEAQEAUEgNhAQgmuaByJkLVu2wPi2OxvMkFIYMaYukTAS9Qb0M8Jx6TFl+Sw9K5jVXOspbYmwUhu8UQ3/LUfVdOP2AujWEqMQqOgLhmLLbVnJm3ZrijeQael4c6qS4bbrLlHpdz9esRSO7z3Y+2yDGHdIyobXnpwMJ114Lcz8bA4AEVxlgfDtcKURHz/uEIsMc/YLn/Adi6TxC6xiZymwOputFHRM/53rmqMn8FcQ879MdBVpNqwLKpKCMR5OzwtoodiMERMmE7EtLIRLY+O9LKMQBAQBQUAQEAQEAQMBIbhEZgyVUREkJDZMbq2U3CwkNpRlix6l//3DZ/XJEuhkf6RWX3ZedfWgVW5F8mL0yb6M6urqRR9C19ZIchWfNJHcYJYx94tWhfEHjYHbH3gKaOOYKjaklcjvSdQ7XndJcg2qvX6UZ6Otvdp1DOyxPc7DDW3bAmze7LkyJrpEUu2K381krMAaDdAce6m+GplVQ9d/tM10hfn58EZ5OTy6cycMks1kwaw+OUcQEAQEAUFAEIgIAk2a4PImsdH7DoLJt16DG7W6QiYSlyqkP3/+tR6uv+sR+PireZ4NXSqMVWaG8paegY/f26dke8eT5SkzP7pn+wLHweV6mBVMFSKdrOiimru2aIfyxxIRa52CYchY3eXn71bhxnSC6iSGLY5lw7/bkKzXKF/vwSdabxhT48N+rzzvdHjkmZdh4fo1KoqC34IWhvapBnH2W9n9JSMFsd+VnqZqe1N+7wacRFDgM5gg62qt3fms2nrUW/LY0ljw39kYtuyCTZtguNGw+G0dTKpUEQQEAUFAEBAEooRAkyW4pMKOHjYYLjnrFJj9zrOQypIeErMUJIh7du8M7+Kj+WspGsDTLyjVtmvX3aCwsEht7jr71OMbklud2FptNNNfI7LL9YnoaiT3s7nfqkftxxx+EKRkYixfJqwcXYFURSa5VmTX6jm9aYFRTNr/vT5d9dOsWZ5PywHVOQjj5z75v5fg7fc/gYPPvcTZctWu15evmRuj1LwpxcWK3PrSiHUfrj/11jxQ+tKgK7REZtk9a2VZ4Li39P1DiiAgCAgCgoAgIAjEBwJNkuASWT3n5GPgo1efhNxMjANLhZmSpn6mZKTAfZi44I2nH4BTLrpO7aCnQiRpr/YdvS0JRFbNpNYumoKeFIKJrkFy63BGZn3iTtpw3JH/gXQz1QuFVQHH+kvJVncoMOzn0sMwfJefPVIjOnZXkRRoU9qzTgmu8R4gcpuTk40RGUrt3xVY55KsTKjBqA1UCGud5FpZFfyRW7N6q9rVRqAndDCrtypCglG3CqMmjKElollZ4uPtLaMUBAQBQUAQEASaJgJNjuASuT3iwDHwznMPQiZmAXOTWxNVor/x/ykGwznhgNHQDOO+Hn7KBar6leeeBtkuhI7IsD9ia7YLcBgwasgr+xlSL4Pkzp7vVnD36NnNPT6z8qtbFdxssH712oUP09b3+tIiuO7Oh9Urx2AkiGwXqcTYvxNrA51kZC5z8pZhG4hXYgjTiby57GMkwVw45q/ZqmAVWUFvjo/7ylrGCq6CjqbfUHX1f9maUGV4cMtRuZ+A/uv30IMrRRAQBAQBQUAQEARiG4EmRXCJ3I4ZPhg+fOVJb3LrtePIRHaJ9CHBPHhgf48Xd8jAPQHKkAKxh5bnmImoDVEsTqqGHBd6TKtMocQ8RBdfx99pMxcRvF2YstbjvzWvIybl2iYoTxUfkcrWY0axc+64F+PcLsJoY8lwK6XWJWnWnEI4BOuWfbU1mPGtuNitzNqVsc2bQRWSSOMrh1JviXCqeL8BFD1iAhNY+pfacryxzOiPFVz6sxzPH4WbzFRbouQGMCNSVRAQBAQBQUAQiDwCTYbgEikZPWwQPH3vrZCbneEdPJVxZ2JKTMhkLygpq/AQm1E9MTwYkVtdvbVK1cvtIXl8a8USOOXi6+HnL94BSmfrUUH1xA7YBim3t1P4LkynOweV3GGddsNXTI5U3qymk1tWVek1asREcuvwnC+W/QJTcKMYkdskJLcfoirdL6WF++p1T6/FOqSUvQEX7NORdRXn5mQMv+ZlSTA6o/Ppdd2Xa1Zx7VRdhkAP+UXNcsxbRVY19ZaP0fRTmxwWjLOWdcTNhbSOMlHJLRclN+DlICcIAoKAICAICAKRQqDJEFwCdPjgQdCvT1fn2BrqLRGeO3CDlXvj14HQPq+Zb3KrK7hIPJ9ePBcuvfFOOBY3jSlyqxcmlhwpAY+dcdBBcCsS3PmLf4Bi9MfmtM5pOGa2KfARs01BO6OsrgYmPf4/eGTaS0rFTEZyS6l2D+7Yy2STsIdm1pIl6vrPOH68fyuDoQaX1lb7DRPG9oT3kDwywXRRQgUaJ/6wVYGOmUkuj9as2pqvQuf6nLyB+7I6RrYEXb3l9pobv1AcZCmCgCAgCAgCgoAgELsINCmCe/l5J1sTRX/zg4SLyCGJoweM5kBRxknmjWQme8IvNTsUuaWwYnece3Z9T3r0A/13bI8I9CFjhsNnXy+EK556Eh6/9WrISDIyjekRFcysz3wdqKAu/3ud8tuSakvk9pD9RsAtV18Iw1p2ctfm8bMCbOGvpfOW/LRMkc3/YHpip4VUX4zP4Lsgtqe2aQ2123coAq2rtUw+jSv315LnuE5azZERyPLAqi3Dx5EUlB/XaEVXbzklL3cgBNfxVEhFQUAQEAQEAUEgKggkPMHlTU6UVeutafe6QWYWo/k7qzBz2Fb0gO7YUQTZOZnQPjcf0jEuK5GuCtQOjfgJMGrIALdnVS9MOk3ktg7J4pSprypieMJRh0F7wJi25vN076uh4ibhv5NvvQoAiekLGA93w+Yt8MR9N0O3PNQQ9Vi61J/yAGhGACJw+Mr20hKY9upMuA2VYCX24hjOQvX1EUrLm4UWDSocpsxrsxu+biK5b6/6QaX1TcbXD++L1+9LwOTrwX/nr1oFJx5wpMe7bF7hrN6+neemwUpdpegJZA/Qoigo/6zxt1UIMbusZ1RXT+qgbyij/nTyS30TTqzestJL5FaNjZYNZbKTBA/maZS/BQFBQBAQBASBmEMgoQmunlqXQm7Zlbc/mgPvfvi5CpulF0puQPFf1aYi40DXFCRjTAjtwoAZdaeiNYGI4Zmo3tomR7CKZ4vt7pneEt66bRKceNvtSsm96Lq7YPxhB8H4IUMgrV0u5KMP1E2/3UFvyzBhQ0HhLvhlxRqYPW+xUpyp0NER+wxQiSyG7cZRGZDaUdxdtUnOCG/GxFnzDZMv95e6nXAyhkgjnvfYPTdDdrWPCLUaua1LS4bP5y5Q4dXskiLQ2M5G9bYG0yJTq6ze0riJ5BLZ9URRMP7WiSnVJyJqtRFNJ6+6F5fP5xBhHg+uQWI5egLVY+9tpeHHJbIsCR5i7h4mAxIEBAFBQBAQBBogkNAEV79aT8gt/UXkeERuT7rwWjcZRALTmtLiYtmOj8xpQxYTRba8KvVTT+hgp94iPyNrAjHD23VrgtNFiIQzJz0T3n7obrjj2RfhYdochsT1Yk11/g/aGDq0awMbNm2Bz9GCwMUt6ibB8CH94bADxsAZJ46D9umGj5dJOWUu4LS9uoKrqbfroRTueGSaIslnHn8UnDdkP+vR6yq08fsmDEX2/Jsz8cf+gumLw4FGdAU7Iusr4QOrrBxtQSfIPJ8s1nNdXcWl10iMpvOZ2NpZE6je4soKONTp/Ek9QUAQEAQEAUFAEIgaAglNcJXiZmwI6t4NEzOYyraiXfD486+qV4878iB48r6boGWmOzVuBVoWvvnZHXWAFNTkpGQ4/XhKiGAonn6m7O2VP7itAUSW6yqgfZLJnmB3vrbZjKpk17pg8kXnwq3nnAEff79EjXfRkmXqbCK8XPQ4s2ecMB7OPuV4lXo4N8mYYmPDnNvigFSwxqCUHA2CGtKI7q+1O+H2h6fCR5/NVhnVPCTdVzgxPoYYzf99FUw8EPGyKURuKa7s4wZGbEtQw8AfZUUwq7aGWmtHenXVlsOCmf24HEGBXmeyy+SW/tU3odFY+Fg29j23oNDPrMthQUAQEAQEAUFAEIgFBBKa4PoCmDyez6BHdTGSRXqE7yG3xknpuKufYt8Of/AuaDX8YKhD4tm9WxdHc1aHHJIezVMhIjfoPyfAT5+/DXsm8T58UzO+0u4qllUL2WlpcPyYkXA8bvKqwLiyOyrcWcEqKt0P0tMxaUUa/mRlZkBmMlJEVnrNYWR1WwWruGxVoPHizxf/rlJpfN/75CsUgpPhvycf5/YPOyG3FMc3Kw2mf/QFTDz/alu8iGYf1aI5VKI9wWUQ2RTjXyKZFElBXbpGcpnYWvlwuSMmrtQ+k1tdveV6bFGgOuyoZi8vIcoby+g1Um/XYxrhuUWYplmKICAICAKCgCAgCMQ8AglPcDko/5q/1sMevbt6vLREgBZgGC71KH/wQGiZh4/wSZ01EcJsI5VvbZ2uBfqZVySC1EwaktJ0jO+6C9PPDkaS++qTk+GEXoMbvSjSU1OgfYY76YAinUQGXUj/dKJsbI5qkKXNs0nNUHE1krsLE1FcMeVR5RumQsotJYJQoc3MSS3MV8Ht4r/PfPUlvPPBZz6vk+ZlJHlsDTKrCKcWHsxjWTCIqk5uSa0mUqorubwRjTql40x09fPYb8sqLm8sU7YEIrr4L5NbaodeI3JLZHchzuH/NXrmpAFBQBAQBAQBQUAQiAQCCU1wiUSlpaZBVXUVRiLYVh8Dl4IPIGn53yO3qU1Zgwdg4ga7DWPIlE455kh46Z33oQVm23JSSowwA83y82DSVRfA5KdehHXr/lWbtQBJ7vF99oYkU6xcJ+3a1iFyS0Xb5KX+1gmveROZZlUgMv5L4WavcGLHHXEQPHLFpdA+GdPnphIZNjF/PZoD9WX8vQG9txded5vPy2F7wgNahAL6wkFkklTcapw3VnOJqOphwmjeONSXukS6bONfVm15QyBvQrPacMYE2Kze8sB5Yxn9nYNWimcKdio7hRRBQBAQBAQBQUAQiH0EEprgEhkickvK4JJlv8LB+w3xmpH2rZpD+xGoqFrEfvVURHuAIrbI75b8uAzOO+BgN53yE0GBzi/DVLvnDR2rNme9vfpHZVs4GTe0fYFRFR654ELIqTFFeKVxmImjkzWkx9HV61vFtmUSjOOn7GYbqkph0oNPwYuo2qqYDIjZmRRO7NrLIbtSCz9mNw5tvLWo8l455Ql4x4f3lpsZkJMN5YhPKqYlJhWdw7nphJZ+pwVqVnepDSK55vBgej2qo2vu+oY0ZUugPqkOrRFScDX1Vim8hjWB1Nu/0a5SUVHpZCakjiAgCAgCgoAgIAjEAAIJTXAZXyIyn86ZB9dddJqK5epVfPlKiUjhzwRUMx/GsFsvvTMLnr0a49NaFV8kGeuTNWHUF+/DpGeeU2TyRWxLZRPr1NtbzTW3TRYCf4WvwR0xzL5om8g2lO/CDXSve7KbkZh6yJgRMPmWK6FfFkaSqDV0Ud6EZke8jeO1mS64Ydpzfq0JipziD6XmrUCCW4VZ1VxIcpWSioNI0eLgejabERHFH12pJTKr2w88c83WDOMFVmr5X3pZbS7DH2VLsEBLfy0Dx/P2zp1iT/C3BuW4ICAICAKCgCAQQwg0CYJLquT8b3+CBR++BsMG9XEGP5PGNBfs1d4dgYFI0caiAmifleduw/zY39RyZRVHUnUf6IAbtaZgooVuuFlt0v1PwOGnXABXYazd+045A5KqNL2R2vXnebW6Cp3cMtk1qbjluCnthVmfqxBmHOWBspuNP+xAOO8QjBVMocM8pNqgkH7GUpuRrMgtRZx48OkX/OJLam05hgcjS0Iq/pCCSv/yxjJWcXVFVte6dXLLnZkd0qzScqQENX+GN9ezwYwtEj7U28ysLJi5aZPfa5IKgoAgIAgIAoKAIBA7CDQJgqvIDZKqKdNehjeevqc+75exsclrOiwEU4pg4H65DmYt+R7OG3OgV0gtz/kGmcxOSlXJHdQ5puxmlCjhxoOPgt1366wsC6QM/7VuPfz3pGPh4N366DnJ6odFHlsivWYV1aw+m8eukdwiVEs//WqRCjNGkSOI3FIYrtuvvRguPf4Y4M10yDLd/VIYMbN6zHFz6bhxbP32nXDeXZPhkznzHZPbTPS0fpeR4bYnaIU3junxbI2gZm5yqmU30xVd89vJiuyalVxWb0lBNo+BN5aRVeH1sjIwJWeOnXevjEQQEAQEAUFAEBAELBFoMgSXVNx3PvgUnpo8Cc47+Sg3GFrSBLcP13jNlLo2CRXM26+7BG7FtLezMNvZ+CH72Ku42E4SRmN49txLfHp7ybJw+JzP4Oz774eZn3ypQnJdfu6pcOvEkyDHlW6/XP35dN3MVV0bkfq1G7bAZ3O/hdemv++Jn+tCwnz6cePwmi6C9jmoRjMJ94rBqxE/jpmrEd46bGPaR5/Ch599pchtIKUGs66NxFBnp2Pa28HZWSqaQg3GmKUeWbUlcpmsRVXwIqF4jNReKyKrptVQas3qLR3j1LvksbULC8Z95SMJX759eyCXJnUFAUFAEBAEBAFBIAYQaDIEl/ns69NnQf9+vWH4QLQqqEfUyAjtfKvahqwbTjoRbrv/cfhi/mKY8s50mHz22XiuttlM9+Dy7yb11jPfRrs5mMThrWtvhLcxjTCpuZQ17ZcVq1VK3lMO2h9yUvDBPUdIcLpYjBBlv65aq7KQ6emHieQfS9ER7rgG2rfEmLxEXKvx4v34kAE3Wemb6jZs2Q6Tnn0eXkYfcaCpa4l0H4Fxejuhcrq8uBie2rULRuG49seNfOfiRq4qtHWoaArG9aqQX8YXEVKcdX+sOXMZE1s61Rw5Qffgqk1lWMe8sUwPC0bH3igvhzkmm4nTaZB64UWANyX660VPgOKvrhyPfwRkXcT/HIb7CmSNhBvh2Gm/SRFc+rCbh17c0cMGw4uP3gXdOrVzPBN07mP33AIX33AnPIJeU8oslk2GArNtgEmtP9JIPRt1TthjiNqAdsUjj8HMj7+ELzDt7qxPZqOiexqM6N0bKD1wEvVjkRKXX6PkEmXor136258w86PZyvpARbkWcOxXYlsXnHkCdG3fxq3Y0g8RfDV+/J3UW26fjvF1cbQI/Lu8rgZe+nC2CgP2PEZK8JWG1wpYurHkpKfAGgz8VYtxZZNRwSWyeX96OtyJCR+25+bC9bj5rLbSHbGAbQhWbVlFSKB6pOwq9Rd/p7apcAQF+tcuLJjqT6ufhfaJpTjGVBxjoCTe8aKSigEhoH8wnXjiibBy5Uqf548YMQKmTp3qidAhZDcguOOmsqyLuJmqqA1U1kjUoI9qx02K4Lq5HpLcxT8iyR0ETyFh7YvJH+hRuCpsUyDCxzYFes14dN+9cwflWyXa9Ni7M+GG8ce4z+O6Otm1U2+5H55245wOaXnw1qRb4Z0jD4EX35wJX2B64M+R6FK5EjeinXbckdCuXUvIQX+vKwOnDZlaGaYhpo1smzZth5ff/RCmPPsy1GG/avMYDnL4kAFw2AFj4NxTj3EnsqDCFgasV4U2ASqpSajQ8i4uneh6MKmDNTu248a0ewO2I3hWN2JMuJVUVMNYJI33IqntgeNPw9cnlZbCkfjaESXF8C+q1k+i55lILmFNMXFpA5rZg0vtmi0K9JpOZvU6RHZZqNdVYLYs6OotnVeKmcsW4riE3HpmMGq/8IfTgAEDYMWKFVCJa+Ott94yxmMXZcQ927X4RaVZfj50694dli5dqsiuEN2oTWVIOzavC3r68/bbb7vn2KYn973RHZYwPy9P1kVIZyT2GpM1EntzEskRNTmCS+C6oyr8rG5y11x4liKPfXp2QY5nfVukeLGzf1iKiuVMfKpfT6venPogHL/3vu4MaFYk19dMapm/VDUjUgG1d/ywYXDvm2/DfMy0RiSXohOwIquqprgw3JlLfdBzYaWWmO2IIf3h5GPHw0kTDoFcVH+9vMZuey4sXr4K7sT4t4TF+88/jN2z55Z3phktI+Fd+PufcP0dD8CC734Obm0iZo+1awf7YF8rDQvFSHz8fxEqtjfhv1QG4s+frhQYjtf0DMbIPQf/pVi37Mu1/cAyVFdFZozR6RvKOGsZtUNosfeW7Ql0Cse95d/p309wc5mQ2+CmO1Rn8YdTnz59YNWqVR6CmpbeWnWR13wvaN0ON3xalH/WvAFVFZvV+q4od6dYpvYGDhwoRDdUExSldqzWhXso7n0HvbpkwGVnDLIc3T1Tf4ANW6vUnb7QSL0t6yJKExnGbm3XiLE3pS9Gx7lgjz0sR3D/zz/DehR/ZI2EcYIi1HSTJLiMLX34UVgrejOM2ncQ3HL5BdCzR2don5uvVNLCyjKljr4y/SN44Knn4dCTzvNMC53zEhLekT17Q4e8ZvUkV7Ek7RG/3UTqaq8ehsvYyHXDyRMBTvs/+HXjBvjt97/g87nzMYXuLHf8VvTO0g8rUUR4Lz3rZBgycE+8jgHQqkUzfLSubRIjEmhYEkrKK+GymyarWLxURg4diAkfsC7Lm4pR1g96+dp/4brb74dvf1hufIYY1ganCxTJ7dPt20M3JKwUbKsd4nZj27Zw7+bN8CT6b2fga0tRvSVSSjFnv0eiffLOAji0dWvohvFn2X9L3elxcdmGoA+D0/WalV16nRRaq5S8iuiSUozHWc1thlEeHpPQYE5nOCz1SHkdvd8BsGDeXGVFoL9z8veCtu1HQY++l0N5RZbqt7zCuvs2Hckjj2sqvRS69z4ftmxaAMWFy+Fn/PCi9+7EiRPhzTffFDU3LLMXvkat1kXHNqlw8KgecOqR7aFf52L49sVu4Kr5p+Eg8CZwzKgBsOGzITBjfgp8t3wnzF6wBtZvqZJ1Eb4pi3jLVmukE+4jORWfAHXAz5f/btkCS7IyIQ3vBeZCnx3/7dABSjp3hv+1aQOzt26FH9evh3+R8Mq9I+JT2egOmzTBZfSIKFqpk+hWhTb9AB448NgGQNM5H2P0gMP2HwVvPXgXbggzoGQ1l8/QPKwNGjHHlyVyy5vKDALcr1NH6NelExx/yBh4+p4boArZZ3W1+yE7EdtU/J6ZnIqKLr3gy/eLxz6f+z3cOeVpFSaMqg7fZyC8OfV+tCjgH/R1lW0VhipaWlMNF954h6o/DFXhT1+fBkuW/wY33/uo34WnHhPiDym3rdGKUI5tUhIHIpEp+Oj/XiSw1+PNYx6+djsSyltQMVXXhDegl8mXi39PMvy0JDl7lFzecKaNQI+WQC/zZjNWb1VMXKO+OfuZbleg+jS+BdjHMHmU7XeOw1VB/4DSiS2RVvruZUdqrcajiHByb2jdobcX0SVyKyQ3XDMYnnZpLYwas7/60kO/E7H9DxLbH14bCNkpm/FNvtqdDUbZsCzGgK9lwwZ14NT98Gc0wO8njYHTJ/T2EF1ZF+GZu0i1ar53MLFdhmpt1rJlkIX3dUrDbldo2SRvcK+RS5DYXoR1/9pnHxjfpYuH6MoaidRsNr4fIbiNxJA2hJ149c1ukluHcDZIiqDpiXYJEzj8lk5uWeFl0oo37RQih8REyYNLhewG5Akm0ufjTUtVidwegYkl6N4/Yp8BysJw9vFHQAqSY0/RCTKS3SnPvoHK7S/qnJF7D4KDMa3xnn27+/QxErGlH/LZXoZKbXP85svKKBFcKrQRrBxJLim596CSS5EUTsKQXOTJpZKJxy/BDV6V2EaKZgnRvXWMqv45pogu/ugKLuFDrdqpt9Sfrt6mY3+zkHhfL5vLGvnOCO50+oBKxY2G1bgW6PfW7Q8EJrbBtVh/Vp1BdEkJJjX3jTfeUD5MelQtvtzGohve82ktpOB7ku4B9MW+R8cUmP3MMOiU/zd2XIpvfPyqakVqfQ0L6/dssQIevxBg9f+NUYSZ1FwiMOTbLigslHUR3mkNaeu0RtJw/wbfO/qhDYGJLXVEn5q+yK15MPy5tdv338N0PPg3El0izKTmyhoJ6dSFrTEhuI2Alj4UyaeZgot+4jW3wJsP3OkO7aUnRPBHahXj0+7MekIHPeYtfem0ILFOyC2RvoKiXer8Q/cbDk/cdxN06dDG/XlAbRrEU7cgb8MQXp98+TWKurVAmc7uu+lixR7bNWsGZ//fMcqPTIW9Trxxw4UKLIX9IvK6Djd90AIzLzJSSonsZmEfp7ZpDfM2b4FR6MXdghvPahBPIqjNsJ1kSuFrjI9e4+/ddkkeFLE1MNLVW55iK/WWXqMbGau3FPt2IZJr8d824o0R5KlMbtUHFfpsyWOb23xckK3Zn9a6w1mQnben8uhWVxULmQk5wqFtUCe3dA8gcjv32b1QtUVyS8S2sQVvhL1aroDPp+7rIbk7CwpkXTQW1wier5PbOrx/ELmd16MHZOGmVKXKhmAsnZHoztVIrqyREIAa5iaE4DYSYCJ2tPGMiN7haFd45pbroQPFmHVSzMSWzjErt4q01RM3jw3B/JTF/qmLOn3C4WNh0/KvIA83cHn8uey1ZeLMRBfrP/PqTJUYgiIZ3HI1ShzGOJJSkuDyc07xENt27drC9u071LdmIsrj8Bv0BS1awGokqpkaBqzeqktkmwH+uy9mWBuP53yAHt33muXDoRguLB1fJ7LKIb+soNQ3lOnxbzmKgrIl4NiVomt4cM1xbxW5NTW+1PjS4mT6pE7oEOBHi7SOiNzqPtvQ9VLfEqnC5M9ds/JRVOq2iF0hHCCHoE1aFyNHj/VERnjs5qFw0tgC9OOjJSEU5FYbY+f8NbDk1QFw7Ykd4dH3tkIFxuUWG0sIJjHMTej3DiK3jw0ZAt+TxxbJbSgLkWRSc1ejR/f6QYPgQbQ8kBAiaySUKIe2LSG4IcKTPblEcu+7+UrYs1Vb65bNiRvM0RToLDvlli0EOpll/6yf6yBS26JZrnctU8AEVj9L8cZO6i0V8t4OHdDb67y+vXYDSrdbjqrrZlRflS0Bbyy3tW4FR2N4LSK3qRpZppOV99b0Gr1ejoTmfCTEs3BT1ytbtsJB9Hga62bTlwZNsVaqLf5Nm84Ia1KumeSabQn665yS14n3lsb3OT6WvCBEa0KacYYArR/eUEYfVqTc8iYyZy0EV4v6SE13v0/ZV1cffiy4NuWs0CGgNv+i53bxwnmq0d07p8IpYzEyRp3NzsIQdE1e3svPag+vzdki6yIEeIa7CfO9g5TbX+jJn2F3C0f/qejRvQUbftVoXO4d4UA5NG0KwQ0NjqoVJrkUmeDkY4+CM8b9BzIoxiwVu8gKejQFJrD8mj/l1iG55Uu0FHktXlzz13ql3tIhiqObrGdpM8jl3v37eFRcsmi8ipaElhjmC40QXkVZFMg3Z0FuueJuaAkYje3OxzqLkOwO3bEDKvBvfrREhJUXqinIgzumpdEQKbSK+BIRNl7zFRZM996q+cvOhplIcKVEHgHeOESe23DYEuyuiOwK7MklcitxciM/9756pHXhwvvL7p3ctoSkOvcGoLAVVIVzUjd72RVkXYQN7ZA0zPcOtiXUhFi5tRpkGpJc3a4gayQkUxnyRoTghhxSUCG16OeDT7+Em6+6AAb36AZpqUjNiIBZEV19cxeRWyadrGBaRUcIkNw6vUwii5Q0QhXs4+KzTqxPDkGv0X42/KFNahRabT5mhiNjfzH6bSvRN5uGVXT1VlkANPXWTsWdiFEV5mH4lqm46WwMqrisyur+KSIf7MU1x7zl62OLAocGM1+38ttqL7L3lsb5Q2UFHOoUKKkXEgRoTttgOJ4tOPdENDm8V0gad9iITnI5Tq7DU6VamBDQ10XbFkmG55ZsCWHqUG8WSS7ZFd5/Ygx0aJ2q4ubKuogA7gF2oa8R2vxFG8ryIkBueZjsye2IfVPcXFkjAU5gBKoLwQ0xyOzJVVwQP7wp1WsVPi4hr+opEw6H7l27QI8uHdWmr86d2kNuZgY0b54LrfPz1EjUhCQl1+/30smtmfiGeOzU3F/rNsEjRppfSu+bm42JIvRCY0ASfs5J46F7547qSBmG9HqhQ3tIw9i8VCiuLJNcVnDNQ6XXtfgNcKBxbRQ2bDmquHuhissb2Lw+e+hLgsV1M7GlQzSKQCIn0Dlkifi5uFwUvDCsKX9NbsWoFbUYtaNL9/8LKASYv3YDOU7xdalItrNAUAtvXfe6qIVTDmgLWSnbw9uZRes9cePZwaN7yLqIOPLOO+Q1chrGuM1BT2wkC4kvHdCTO6RTJ1kjkQQ+gL6E4AYAVqBVOcoCnbdp02YVbYEK79DnyAP0eiqqoFSOOHA0dMO4t/n5ubD7bp2hX6/u0K1rB8hEVVMRO1Z1fWwqC3ScXL+isgauv3OKkeo3CU47fpwKsKBZYT1Nk23hoDFDVESF596YAS+gF/ec5s1hJ12LjSXB12KrKSyCW1s0hztwk9mHaFnoiz0RWrrXVo+iwCk3eTMZDcyTwUz37loMnv24unqbgvaEWRiujOZCz1YXLJZynn8E6AsMffGj90ZO/p5RUW95lLVJvTxWBXoyEXTWPv+XLTX8IMDrYuPGTSqqAcW5TQrDpjJ/E5GEN5RLJnb0qLiyLvwhFrnj+r2D1dtQREoI9AoojfxDmMiIVVxZI4EiGN76QnDDi6+ndSa7LZDE0U8tqp0cf5MJla74UritZNyQVlVVrbKN9e7eDU4YfyiMHTkY7Q669hmaC6AcDxddfw/M+Hi2avDME8dDvz5dfTeOjPPsU45TqiclR7gMSfpOfFTDxc53a/f6SUji78CTl2P4sAyMT1qFsXL1omL+Gi+Yvbjm7GV65AQ6hUOB0ejM3ls6thjtCWrzmidlcWhwlVZ8I1CETzLoS1Q01VseIam4tJZXowddSnQRKMQvvOnpaXD5hLbuJA4hjpjg6OooTq6m4sq6cIRaxCq57x11QOptXoTVW/0iu6CKuzequHLviNjUO+5ICK5jqBpfkQjUTkxDa1eYBNMbpTXGhy3AWIxUyM/73U+/wMvvzFJRDWgD2yj8t2+vrrgBrPHjInJ77xMvwUvvfqAaGzl0ADx69/V+GyayuU//XsqLS4rqX0hus7XNZLy49E1mHCKMG6dj9C2YSm1BoSdk2E8YpaG/QXB1H67y4Bqysq7ecppe3WPLSm2VdiVW6m0OPgZdWlYhyq3fGQ99hVKcYw4LFvrWA2sxLaMTZGS2hcqKrWJVCQy6kNcm21NKagqceFwfbBszlEWp0D1u6F7usI/0OFw2IUZpIiy6pXtHKm5s/mTI3lEdFMlNB7ZqpeyIHDJUEsdEdUo8nQvBjY158BoFvTko/BYXq0fmdKMlewCpugeN2TvojDuFu8rgqkkPwotvv6+6Gzm0Pzx1zy2Qmca00zdAyciwSV2mqAvzMALBoai86oRWV2v5d1p0yTh+M9lNw9cGYpzeWTsqYREqqgOxnopxq5FmIrtEUvW9Jrp6y/qxVfh3K/VWXR2GlvkQVWMpkUNAxY0+/HD4+OOPIxYWzN/VcWgyGtv5558P06ZN83eKHA8xAvq66N7eBd1bopoeDfVWu64JI6owux7upcCnabIuQjzhQTSnr5Hd8XNqv19+CaKV0J1Cnz//xU2yV9Hnldw7QgdsCFoSghsCEKPRBJFgyiZGb6jDMPbuGRMnwKEHDIcc3BTmxJ5bgxaJZ1//AF6b/r4ip25yO0CRW7/WBO2CyeI6ZFB/RZApWcNxqIaWm3yvivCaQLIzWQxLS1c170Qv7rnoi02paBjzkhRcPbkD1ffy4hIppmgJ+EPqLdsTrNRbOrYe6bJkLov8Kv7mm68tNxJGfiT1PVIMXipz5syJ5jCadN+0Lqi0bZaOX4KLoo5FRkoxdGvvvoPJuoj6dKgB8BrJRVsb4J6NWCg9MROnrJFYmIn6MQjBja35CHg0RHQ/nbtAnUdk95oLz4KDRg+DPft2R7Kb5dVeJYXyqqyC5b/9CVOeeRk+/2aROk5tUMSEm688p2HUBD8jInG1BW6I46JUWgoLhi9Yxb+l10i9pcKKLim5VJ+iL+yFG704Jm4Jqrn5SHBVwgfjHE74QC1wIgg9IQS1q6u3vry3VJfsCa+jNeK/ASMvJzQWgYyMTHyslwY997otatETzNfQut0B6qUMTNksJToIZGZmqY2tky4bjAOInj3Bc0+rLYLLzhwk6yI6y8GyV7VG8Mg9fXE78pIlUR9ZCsbFvQCzm8m9I+pT4TUAIbixNR8Bj0b3hBFRfeCp573aYC8Qh9yif7sMORSSkNjRsRHo5Z186zWw76A+jpRf8wCpPQp3phfzJjImu0xkqS7bE9gIQaosRV+oRhLeH7OhzUeiuwDHdzjW5UgKZE/QEzl4MpbhebypzCqxA/VnzmTGG82S0J4gyR0CXnahOwGDKkcia1noBiwtNTkEQrDPoclh1sQuWJZIbE64ENzYnBdHo1JRFzBywauP36vsCYuX/AL/e306FBeXwNzFP0ANbvqqQsJI9WhHcnKy2xhwzGEHwsA9+8D/TTgUOrZrjSpa8G9PChe29Nd6lUWptqTg0r/GDxNaj2JrujpahKTCEumlb+VHoDXhSSS476NN4UhTXbNayx5dX/HfWdFlNZf+5fIRPt6S5A6OlltYKlH824z0UiG5YUFXGhUEBAFBoOkiIAQ3judeRV1AAvvm1AeVteCg/YbAwfhDhZ7oV6PPtmD1AkhJcUHJn4u8NqJZxbYNBgrqZ8lP9gG29UQP+uYyjp6gSK3hqWUi3L3Orc3OQk/vk4YPV6fgdJSJLse+JRKrhwbTvbfUlsqoZhRWb8me8C/2ISW6CIiCG138pXdBQBAQBBIRASG4cT6rpM4+8cJrcPRh+3kpsURgSZlNTQmvl5AyDa1a85dC8cLcXCjHqAqBqLeKjJN6S5YJYy6yUYHWi5nc8jGPmmuwdSa5+rn8mpV6m4TkWewJ0X0DUNxhUXCjOwfSux8EzEG2BTBBQBCICwSE4MbFNPke5Pxvf4J/f/oC2rdpEfGr+WfDFhWFgcjp/kgYK3FTmIfg4mtWocF09ZY2nKnsv/jD8W6TUVW9CMnyU2hT+Afb3N2IpMCfM5yWV0VOwPPpbz1CAoHAhFb9bkKFLQqr0cIh9oSILxmvDingmyi40Z0D6d0ZAlapw52dKbUEAUEgGggIwY0G6iHqU3lwMUxKdXU1/L1+S1QI7vc//ea5mmz8jWPWem0sMyIg6KHByJqgYuESsTVILn+AEHHdjXaxI8H9Fdlvd438qigK1A/3qnktfCV2YNLLZJfsCXOKiuDSEM2FNBM4AvRliJ4AJNWugrrk3oE3EIYztm76Clu9CcrLy8PQujTpBAFaF3TLmPbSUhh6W07U4+BWJ+fBlOd/hMvuToUePXo4uQSpE2YE1BrBPh7buBH2C3NfTpqvaJYPr/7xh/o8kXuHE8QiU0cIbmRwVr0wgQtVlhPlwUVyiy3jRq9VMHRAb9xI5iQKbmguugSzf72IsXipjKLkC5R5zLAocA8cA5ciJKgoCkTKjYNMblm9ZQJM9fZ0uf/6ubQMDjfChLFVgT24THLtvLd6YgdWfVm9ZXuCZCYKzVoIppW9Bu4NixZ8A5s3zoc2HWOD4BbtXK4uZZAR8ieY65JzGocArQsqS9dSqm4kuFEu5dU5sHYzRnjBe+3EiROjPBrpnhCgNUL37h/+/RdS8DOn2hBRooVOcnYOfL9unRqT3DuiNQsN+xWCG6G5oIXfokVzjGaQDps2YW71EBZ6b//w83I456TxIWzVd1N0PWdeNgm+mLdYWQzGY6rCYtzwxoSW/uWwYHrcWyK3rN5SD0Rj6XyVfhcL2xRooxm98i9+UydyTIWJrSf+Lb7GERLMYcDMoydiy+ot/U7REw4xolDQRj0pkUWAvpwtmDcXN0BihqiK0L4fgr0S8gJzeeutt4JtRs5rBAK8LkjZX7OxBn7f3gt6tljRiBYbeSredH77N1dt5qV7nqyLRuIZgtNpjcz/Zg64kNgmoxCyZu+9ocv334eg5eCaoM+VhR06wMHG6bJGgsMxHGcJwQ0HqjZt7sCwV0pfpagBRp1QqLnUxnNvzITiNYshM91Zit3GXvY7H8yBGR/PVtczDkOV9UMiShnMzNYEtiHoaXl1awKNQ8W3NVRajnnbApMvZGZmwAdl5ZCEXwoo5BkTW6pDSSG4mNPyklpr3lxGdVm9bYZtLUeCy1EoGouFnB88AkRwq6t3xsRGs4qydVBVuU19Ed25syD4i5IzG4UAEcnMzEzM0FsLi5eXQM8oPoOuw5vTKx9thIPOdgsUsi4aNbUhPTkNPxfKy8rgUSS45xmfIyHtwGFjGfh5Q1aJA/FLWcuWLWSNOMQtEtWE4IYRZfX4W/HZOsjBrFxX4027XUoqlODfa9HjNw0f6VOcWsV5meQ1YjwFhbsgMwIbzYjcPv78q4ogjsbxXt+sGWyizWX4u0e5JTsC/k0KrW5NYKLrIb5McA3Ft5611sA12blwJxLcGvTjJiMhZZ2ViC6RXD2erZ6Wl9ogRdccGoxJLtkT5hYWNgJpOTVUCNCXmMLCIvhnzRtoUzg7VM0G1Q5ZJZJRFerSZbegzpeTQocArYtK3Gx699NL4JhRAyHbtSF0jQfQ0r+F3fEp1bfqDFkXAQAXgaq0Ruhz8/6ff4b/ooKajNnEolG29ekDS377DdJSUejZs180hiB92iAgBDdMS6MOv83th+rUmW3bKIL3IHp0SpB0Ebml0hVJ20P483S7duq1+bjhaSZ+Gw1U0dV9vfO/XQrHj9s/TFfkbvaLr5fAY8+9oiInUErdG9q2hU04bjO5TTM2kJl9t0RslR8X2yLyz9nJrFJN9E5z5/YuzEiHfCS4VIeILF0z+29JyTXbE3RFl+rrRJjaW1xZIdETwrpKnDd+4okT4ZlnnlE2hWiGC6ONblVlq5XPMtD3oPOrlZpOEeB1sXl7LcyYnwKn0jfp4PPROO3Wqx7dqSe/shW2Gd+Fly5dGlQ7clJ4EKA1QmU9PpFTKi4S3AgvEfWk8Cz87C5MTcZ7WJXcO8Iz1UG3KgQ3aOganugJI4ME7LbWreCc5vhICx+zqWKRWYFSDFQahPeAvDy4FJXQxwsKLOuae1N9EVnEKAr0gVyJSvBLb70Hxx25v1VXjb5K6m7aq+/Da9Pf95DbG5HclhnkljpgMmul3NLxVCT97Kdlckuv803JHO92byPhw/KkZBhp4KcSO/DvGqZWiR10Yqs8uPhD9oS5Rd5xdhsNjjQQFAK0bqdOnQqvvPIyrqPtUVVxt25eiO+hSujWrSusXft3UNcjJ4UGAe91Ua5U3AkjB0JOcmQVunUF3WH2/G9RSa6SdRGaqQ1ZK7RGnn76afVklDJ3kop7Nqq4aRFWcXf17Qs/rVwJJfjFWO4dIZvekDUkBDdEUBLhJNM7RRO4AIlfV9QnyZNKhI79omlEaG36o9d3Q08REePbtm1XtayiLjCxPRrtDgfm58N9LVtCM1eyIrmfzJkPm3+ZC62a54boqtzNlJRVwmU3TYYX335f/U3KLV0jk1uzLcEqYgKRW0+UBIPUsnpLbRI55hBgPHhK+EB47kSiy4otXT8pK55YuOS3NflxdUVX31xG7W7KzoI5+CVCoieEdIk0qrFTTz3No+JGI2RYccGHUFy4XK0JIbeNmsqQnszrYvNOgBOvWQ3vP9IBnxQVhbQPu8Z2VXWA829bBlsL3E/cZF1EBPaAO6E1QuVfFC6O2m03eA3DdaXj/o1IlAIkt0dgFAdSkOXeEQnEA+9DCG7gmNmeweS22pT+1UxyqQE7otvC5Z4SjrpQiwpwIT4CoUI7iycgsR2NxPZQVHvZ7mCcoIjfxTfcC89PuQ2yMohON67UYN/TP5qr/LZkSaBC5FZXbgMht2bfLftxOV1vskZU6TUX+pQpOkMnVHCJ4PJGNCa09HhID/+lE1090YOOwg9Imv+LO28pg5Y7xJqUaCLAat2cOXPg999/h/V/z4COux0Tsbi4u3Z+AIXb56n31uj9DlCRHaREHwHzulj0WykcdcUG+GhKftjj4lZDHow9Zzn8tQm/WOM9cNSY/WVdRH9JNBgBq7h90AO7ElXU9//+G8Z36QLvIMENt1WB4t6OWbMGVuITTLl3xODiMIYkBDdUc4OEjFTNFAoQT0TNiApAzRPZ0kmury6J+LK6SFEXPOQV2ydyO655MyiorfMitwV4E34QvbxXb9oEb73/CRy2/ygYf9hBcMjYfaFju9ZoY0BC5+c6qc8y9BCt+Ws9zEcyuwNVzvmLlsDn3yxSZ9L5ROAbRW6xDxUGDNvRoyqwestDpA1kHDHh1J0769VaUnlt7An65enhwBh/moN8/KY9DW9INUhmpMQOAvRBtWrVKuAPqpz8vaBzt85hz3BGnt+Nhb+qjZ5CYmJnPXjuA8a66N27N/yJZGLNpjL4ds1gGNpttd/7WbBXUwvp8Po3zTHu7RoVGkzWRbBIRuY8uncQueV7x4/r18M3Q4bAfkuWhG2N1OHemf917QZ/oCebPjfli3Fk5jqYXoTgBoOa6Rz6Bnc7WguGINEkWwIVlaJWI7n6KWRZYH2VCK2XdQHPIy/uY0jsyIbQGW0L/fDfVGyWlFsit5YFz3sMCfaXGB3gC1SQmZgOH9Ifhu89CIYMsN/d+cff6xqQWU8YM+yMVNtxqKRSKLAqJIgZhm84Ha+bFpAeCkxP5MC2BN5YRuPWbQkKJ2yDlFd6XUWSMNqmYxz3ls8xbybT/9ZDg9G5HmVXA6sMoydUSfSEEKz40DfBJJdaJrsAkdw27UaGTckl5ZbIbUX5FnUxotyGfk5D0SKti9WrV6umiEx0aJ0KI/vmwLRJKCaE2K5AtoT/u+4PmLdsLVxyh3v0si5CMYvhbUO/d5BVoSM+oRvSqRO8Vrwr5HYFsiUcjgkdfkZyW419yRoJ79w2tnUhuI1EkMgtEdJj8OZbgm8sRWyxkGKok1z+26zmMtHVCW9PJLUvduwAx6JauwUJbRX5eG14rT58Isuk8I7Gc+YhkfsAie5iVGPpR31A4A89msc4BPg/DLWF/601CLNKtqA1lotk8DSsuzd6VvtgHQoDxtfA6qsduTWn4WXvLS82fnykrAlEbg3F1qzkqqgJxpiIsPrKXMZDJ/WWN5TxPPBms7kYieHYRs63nB5+BGhN7CpYBukZbaBT12NDTnLJc0u2BA7RF/4rkh5CgQCti/VbKiEFN9ZuuqIG3nqgF+SkhGDjWZILdlW2hf3P/QV+X0dpgt33JSnxh4BaIwbxJE/u61nZIdl4Rp+dhUhu9/vrL1iB4T09G8rjD6ImNWIhuI2YblrkZBugOLC7KJqAnWprkF0rx6eesICGwkR3F6rBrO7qQ2S11+pfqleKZJSOHZmbCxORoAKS7nIkstuxPYq9+zIpprU1kIbJGWqqaxSJpTIwKxOao9c1G38nlZbGSoujGuPQbjJ+Z78tK7h2yq2eyEGFD8MfPWqCJxaucWEc15Y3mdHfOp9XkRPohzaUGedYhQbj16zU22y87qeLi+HxRsy3nBoZBOh9RY8cq6u2K09uanpbtCxMbLRlITOjFNb99ZZSiOmLqTx+jsx8hqoXXhcUgnHRijIYcspSuOnCITBhRFXQRLe4ugPMXJgKdz+1BLYV4Jdo8WKHarqi0g6vEfbkkpp7HabdPnvz5qCILn0OFSGxfRC/VL26fLkiz7JGojK1QXUqBDco2JiZoe+2RQuoQuLkBaRBaFVmL13RpdO0R/Dmru3ILtczq73mv/X2ypC4luELqcZGKiKu/VAZfkjrP8XY0KbGXlWtQpYRqU7RCDnHt6UqZEngwpES6G+2JZiVW6Xw4g/ZDtQxbYCcklf/JqxsCg6UE6vMZdQ0q7fcjR4mLC0rC6opBJuUmEdA9+SSN5c+UDIy2yqi26X7RCgrz3J8DeSzpSXFxLau7ibxzTlGL7YqmtcF3zvItkBEd99+WdCzJdkZamz9l3T7q0tKhyVru8LKf8rhpoeWQFFJNVx0u/srtXzpia05D3Q0uieX7h2s5jLRPQKJavulP0NKRaX9GqFO0Wf79Z57wpf4FPSVZctgC95EqvCzVDy3gc5IdOsLwQ0Sf/bdHopvFFWY1GrtWYKL9ZQ6indaj43BzxiY+PraqMbxZa2aYpLNx/hvHp/nb4P80t98jEktv2an2jK55XEo1ZaILf5LxxRx1UiuHvtW3/JF53iiJPCGMvrI0jaXKSWXbjj4OpNYs6KrbzSjOqvxm/ehQc61nBZ5BJjM0AdKc3xCUllR5HksSNaFvOZ7QV5+L1T1e3oSRHCiCPp366av1GPmjQW/KJ8tE9s2bdrA1q1bxVsZ+SkNSY/6umiGexIowsyGre4ch5T2uVt7FwzomgXnnT7Asr/bH/0RthTuQCvCWjgYa1yMxJbWmKyLkExPTDRitUaI6NLrNNd9UezoiR7dS9u3bzBe+ppz44oVUIwbDH+njWr0OWNYHmSNxMT0BjQIIbgBweWuTG+SA/Bm+nRODpShusQki4goPb6vxp8KVFDV7waxY0KrGjDImnrNpn9dfdTJqy8iq27yNgqxmdTqdXWCq5NePXED1ee+zal3dUsCEVr6m9vx+HURJ+W31a6XUxnTS/S6vqlMhQVjYmyco8KCWeDFr3FoMHPmsgzse/q2bXBpEHMtp0QXAVozRGJorbRv3w42bdqMZHer+pt+UvARJObX9fjK1dtL7e8kxcWdWUg/l8itlPhHwGpdUNg/eir114ZdaDuYZ+uTpHTMfB/nNSXrIv7XhPkKrNYIvUYeWl+Fvvio+4jcO+J+UQjBDWYK8YP13tatoQ4/eFMNAsvNEMlVoGrE15NaTFNIPSTMILus6gYzHPM5Osk1T7BZraVzdcWWfbb662bVlo6l4o/VZjI635yZzLOZjG8cBg68jYPJLW8qI3JLCi0RXE+CB4LUwEpXb638ttQNbzRT2cvQmrHAiCUcCnyljcgjQB82RG6ZmIwcPRZWr/wVWmCiE7tyxBFHwMcff6w+qPjcyI9cegwnAua53XfEKLUufJWhQ4eqw7IuwjkzsdO23b3D3xqRe0fszGGwIxGCGyByHDXhMvTmeNREE8ml18nH2sBva9gYdNXWY1UwxsHE1+PddTg+u4n0Iru6/5bJNo3V+N2jthoKrE5saRi615b+JkWX6xBZZZ8tEVU9iYP6MDGuQ49/q9sRzJdJ9XSrgpVyy+foxNecuYzqoN7nCeniEE6pFsMI0AfWwvlfx/AIZWjRQEDWRTRQj68+ZY3E13w1drRCcANAkB517o/WhPtQvU3GsFmkzLLCSIqmh9Di60z2VCQCtipwXxZE124YPEHmx+56fV9+XkvF1jhZJ7+6HYFIKxX2z+qxbel1syWB6hFZZd8tbyzzUnI1ZVcRXqMPXb3laApEhjksmLIt4A9HULCKnuBrcxn19X1pGbgTOkoRBAQBQUAQEAQEgaaAgBDcQGYZSRklPOiMSRiIcHrCXdGjdFJszX5b42+OdsBE1KNOOvDi8vB0MmpWeamOlffWyqpgpdaq8zXiqsitZqdQ5B0LJW5Qx+h3PM6hv5jM6+G/OPYtkVYmzHwt7K3VLQh0jHdFW0VSoDZUMge2dBi/64RXV2/ZokD+23X4ZURiWway0KWuICAICAKCgCAQ3wgIwXU4f0SQxqJ6+3ZenrImEIEjuqc2XvHmKeN31aSmghIpSzNIsL6xjIkukTHekOZFZG3GZreRjKrbeW510qrqaRYFVmS5Dh9jYqvUXTyoCC3+zn/r/elhwHR11mzT4GQO5g1kfKkez63mtyW8dSLr3jPtXZj4ml9Px/F+SvOEc8eZZxxOuVQTBAQBQUAQEAQEgThFQAiu04lDonQsqrfJqN5y4UfpKnwXkUbdd2vy4BIh5igAXnFm8dx0PMaKsBdRYyuDQfb8DdVMfHW/qzmKgtmGoJNendhaRUjgGLY6qdWzk1FbekpeUmT1sbAtgerpXlszydXDh9ExIrk6uSU8rewJng1meJzi35ZL/Ft/S0eOCwKCgCAgCAgCCYWAEFwH08kZy15LT8OsYEZh5Vbb6V9DrxkhaEi5VKTWhugyCWTixkqnHk7MvFFLHyq1q5NG/ZhOZjkjmepPU5WZXOqk2IrY8nlks2BlVvfa8nXovltdwdUJO4+Zw4GZfbj8usIEf/SMZvomMw4HZmdP0LEocTC/UkUQEAQEAUFAEBAEEgsBIbhO5hOJ4YmYsawMY2i6dDUVX2e/qIcocrYvJLq1JpuCR+k1Np0xASaiSuSSSZw+KZ6UuaZxmtVaq4kkQkvElP2wVoouk1oP4dWILKu33Bcrt5yZjHak0u9m9VYn73TNrMTqhF0nrGalli9VhQsjskub+TT/LR03x761mkYiwkYaDvHgOlnnUkcQEAQEAUFAEEgQBITg+plI3XtLfk723yYbERQoQoIikGQnMMikImxaYgMmuqRgejZssa3BILuKYBJx05RZ6stXOl6roTOZZcLKdayUWjrGG8e4f1Z59TS7uiWB21OvGQRetyOY0/Hq9RUs+KNvIlOb0Cxep3oq3JhxjNuxiybBVgXdnkDnFOA80Bxy1qMEed/KZQgCgoAgIAgIAoKADwSE4PpbHkiOKHJCzvbtipyxCknkk0gukzPlRyXSi/+qmK/4OxErsi2Q0slJEbi7KlR4zWSXjnni39I5/sZmcdwqZJiu0tIpevQHzjymXqdhM7E0lFm+ZsvQX1pdfSg6yVVQGAe5LbYtKOwII+PLAlXjJA+e3/EX5V3WlHNVH3/0dLxWUBEW641sVpQNqykW4ztIU7z0hL1mh5Z8h9fvDgkoJZEQ4DtukNckN40ggYvh00J704jhC/UemhBcH1PF6u07aE/QSRuri0TOFEFkgmaQW/qbbjGK0BE5M5RfReh4oRlWBs/fpgXIaXGtIgb4Wl1EZvV0vl6buzTLhB66S8W7NRrljWPsj6XXaZEQFqzk2lkS6HqpLuPzd+tW8Brm9H4Uc3lfhilVW2AaTSpkG+iGf2cbfeYjFt0xlJervBySsK5H0TXwYozMWLAX1woP3rT3NPZzW9y8HUM7UJrubn0fDm2j0lpUEaDbxF8rrgzRGOqgcHaHELUlzcQGAkmQf9CG4IeCN41KSn8tJXEQwJtGGn6uNsUiBNdm1lVMVvyhyAn5hnrrRXI1awLVY0JL5Fb9jT/0+J2VR37UzpYGJrueeLNE5sivaiK6no1qPlan1WYzj33A8MnS6WZSy2qt7qPVlVrdeqCIvDYGc1QEOmReTERu79hBUSeS4E6TqODm2m71iBXv1NRUOBSV7VPxC8VedbWQvrPA8qo5eoJ+UE/Ny6+3wjf19sLCpvi+lmsWBAQBQUAQEASaNAJCcC2mn8htCn6LHYXHPs5x64xM7lid9JxmEFn9b1Zu+eEfk1RWQLmuThJJ5dX9puxTVeTTxyMjDj+m/8vtq/NMqi2H7NJDd1kpsnrSBrPlgBViHQsdHzq3EnGbowhqEpx15Z3QvfeeXkivWfULfPjqo7CTkmZUu79dViIhnoXnztq0Sf09Pi0NOuPP2OxsRXhdmJGsGEmr+UuAnvqYzuO/KURYdQRChEkSiSZ9D5WLFwQEAUFAEIhBBITgWkwKeWarq6vh8XbtIH3bNi//p07kmPg2sCoYbdLr5APlFLSKVOIxJsD6hitSMYkoeR4OGcRUeX1NYySCp5Ne3oxl9trqm8A8ZJTGRO1ppFkns3TI/LdOyHksKjWvoQ5T2yzQ8viXZWbB/F3Fyr4x/OiLoKIaFdkU99npKUnQc/D+cMj/XQKZqbjxrrYUqoo2wqLvfoAfv5sPa5YugD/++ANmIeFNqqyEJ3ft8iBwUW4unIzEFUpKoILmyYe3iEOEhYOAcpv0b8uWLWCHUqrrs7HR76xMe08ffe1ppEcuBm8kMiRBQBAQBAQBQSCWEBCCazEbtegJ3R8zX5H31q6w11Q/zkSXM5uRkuhJVWtYFzzEB39hO4NOeJl4soJrdkMpMmlEaPDqm9ozXqB/Oe0tv8axa6mKldVAP1eNUVOmifDq6XU58gGPVT+XiXQhxwPWBskkt6LarW2nI7ktq8LfU7Mgs01POODInnDkMSepY9v/XaUI76qv34Ily1fC+n83QA1e99PFxfA42g4ubdYMemZkwD6Ia0EZKrsG2dUTP5DXl3BIx/jFlZWBupnt36bUZhaS7DLsl74Mbd++Q/VDP2moOHfs2AH22asPDNyrLwzZaw/Ykt0XuhtLadnCL+HC626PpXuAjEUQEAQEAUFAEEg4BITgmqaU7QmkFLYi760RAcEqFSxvhjIrrJ6kDUZUBSa1DeK9kucWD3o2eBljUeTWOGZecaTSqnZMtgVuQ1dY+Vwep9mra2eZ8FwP2SM0smyXeMLKvvEvWgqIxv7nmNPVMIjUknJrV8oqayEzLRlK8d8s/Ldlp95wQvc+ABNPhsrSIli5ciV8/c08WDX/XRWh4jHNekAplPvn5MCIzExohWPeiRvWSNndaWzkIxLKhF/NRSN2lHI7paWlHlJLIcjatW8PPQaMhK/fewn2HH04ZOc2V5fqUgBWQk1VNdS6MqF43QqJyZtwt1G5IEFAEBAEBIFYQ0AIrsWMjEYCdElWJiTTo3Fj45cnPJiJHJnJne5LZUWXCSsRM+WpNaIuMPGkIXiRXxPxVXxW61f3zDLx5o1iejs6oWX7gpVSS+3rJJ3VWj6faSkTYu7DTOx1wl9Qi9eZ7ILB+46CbcU1kGasNDsVl6wKdiUf1dp9hw2DsaOHQ1nx+XDTA8/B3Pdfhu8WL1BWkrnKw+tWhck7TaUVRnAoRxJ6IeJWXl4B+Xl54Epxqd9JedULk1a3pcDzH1XFvRfOvYmQfic1OCM9Q7XVunUbGH/gSPj444+gU+fO0LXrbrhRMBlqqiuQ0xap85WKj2Q/KSkZkpHgU1+pKalQXWN2DttevhwQBAQBQUAQEAQEgQAREIJrARipgb02b/GQTvaysprLp+iqbgOfLFZiwudJccuP/Ul9NQirmXCayaOHsGqKrVdf5NvV/bSm67EioXoVXfFlpVO9ZrTZQJ02rssMG2GkvMEGEfwbQ34BErtWPYZ6sokFquKWVqIVIK2e+JKdITMnDy4773T1U1BQCG9OfRBm/1EBs999Btau/RuqSbXV8GDyqsfB1dVcuo527drCoL49YdTwIdACyXSL/FzP5S3f1Rwq1syHZs3ylN3gqy+/hOYtW6rjzZu3wHPbI6lFpTapEqory6G2phKSXZieIzkFiW4Vknz8UoPkthYrpSc30PADfLtKdUFAEBAEBAFBQBBwgoAQXDNKSI5Iva3VNjZxFSZx/LeVqmunanq6MdRZ3nxmJss64WSvq76hSVdJ2d7gS0k1X57ZpsDkm+rR7xw6zBwhwetvg8zSOWZM+MvA2xnpUId+WS6VKFiaVVw6VoGklby4vgrbF7gOE+VmzfJh/5Muh0PI+nDH9TB/3jfw8eLfYTX6djdu2QI/LFuJxNIdoYFCkOXgFxcisjkY4aEksyP0awVw9ElnwurVq5A4N/MMQXmjsdCeuIn4Nae27mzPMUr+S3YDLrVVaFWorVZKbRKSWir0NxFaFyq19LunLr5WULSrURYJn0DJQUFAEBAEBAFBQBBwf4YLDvUIEJGcgD7OGfjYmx9JW+FjR3S5Lim7Vr5UOu4VZgz788TJNXlq3UxJyzJk/M7JFIiMWoXj5ogN5ri1uh1CJ7W6gqzri2Z/rqceK7u6omx6rTQ3B7Zu3YbqZUP9V1dx+Xciub4sClZzwOemGb7eVFcSDBk2GgYOxeBul54JVTV1UFa4xXNqdlYGpGc1wzERccX5wQkm5ZUKuz80Yd0d1xiP11aVe0gqWQ24kCqrFya3/LqZ3LqVXICXv/oNw6HR9jcpgoAgIAgIAoKAIBAuBITg6sgiwzmfspZhHFamlmai6wm9xYTTYsMSq6SeeLhGHXMMXXXcgtjq1gc6zuHEmNTqZJWGb7Ys6JekLAOGMsvqLB/3ZV9QBJdtB1bk28eKLElLx6PFitDlte4MGwqrIQ0JqF68woYZ0RQCIbm8Ya0SN68RySVCy4UILP1ktmqnCK3nerW5YnJLx/jy6LA+30l1bvWXyCspsWw1ILJqLqzUekiwodyy/5YU3SoMe5ZV+i96cFPQg9s0M8uE60Ym7QoCgoAgIAgIAjoCQnANNDgt7xcYeoqLLxXXQ5q0x/XmpeVRcQ0GRaqqHhNXkSfDl6uH5dJj3Orxa/X2zQqrmTxTXSbHHHvXarLtlGYzkdf7Zlzs8CnADVh0LAUf0ReV1xM53aagt6fbFMx2BEsfLhJiX37eaiSTRHC98PITOcGj4npdaE0DiwGRWyKrVKyILp+uq71sV1i3fgN88c1iIbdyDxYEBAFBQBAQBMKMgBDcekai0vKmbd2qXtHpkR6aXzMNeKbGi5CSPcGk7uokku0BrMaquLZGfd06wFETdJVVV251L64iW8Zo+CE6k1t+3Ry310699ZU1TcfFX6oCK5wCWcscLow3mZmJL7fFFgX6m1RcsipYFYpowd5aJ+Nw2xOqVQQELmy50Iktq7tch1Re/Zy6Ou/xlFfg5jspgoAgIAgIAoKAIBBWBITgIrys3n6Em5bMxY7I2amXXhnGLGwM5k1iVlEK1BiMc/XwYDqR1X9nYqyn3zXXtfpbv1Z/xFYnt41dkVY+XLs2zQquuR5bFOh1O3Krrt2PgqvbFNzXWuml3ur9kiLLJJeiJphJrf53UlI91S/BsGWNicHbWNzlfEFAEBAEBAFBoKkgIATXIJOntmkNORgazKroj+T1404sDIpc8SYsPtkUIoxfZqVY3+ylq7qeesb5fIxJs67aWlkWzNfmi9Sar00n+nzMnHSWqdwaYwPW2CP/D8iW4LSoMGB+Iio4bSuYevpmM1JvrYpOblmp1RVb93Kqn0FScInkulJToPCvpSoOrxRBQBAQBAQBQUAQCC8CTZ7g+lJvzWTWw0+NX8yP4ZkE+ns8b47CQM2VY+iqI4pLVHrgFjt2eM16A7JqsenLbFmgMGQUl5YJtopR62fTmC9Sa7UMzTYOrlOifkmCjrvtDsUVlOTBVqcO7+rG1iksrkUwhwb9Mrl1X5N3lAMiqb78tubG7BTcosJdkuQh7DMuHQgCgoAgIAgIAhImTFkBxqH3Nsfw3vpbFGYSa95w5c+byu2b1dP1WVkwb1cx/ImZuFqYBuHlw7WJ3kDtNfDV2oTysiOyZkXWH6k1fwFgYj+3xE1xqfgit3okBX+4Ozlu5cG1Irfkr7UIhKC6oLi5tRgmjmPZku9Wdzd4+W81vy2TWvO/PG6M9aB+FYuCk5mUOoKAICAICAKCQOMQaNIKLqm3lNp1Rds2AaNo9cieX9NJsBNVl9TVWcbO/EIkVE78sE7q+LsoMxk3XxOdr4dLMxNa/Tgfq8WECk9hkgwicv1GjsdgYe5SiRvAzKHC/I3P6XHdh+vkHDO5JQLL3wVqKIWukajBTXjr/bZWf7tJa/1XC7NtgTeZ0Sa3v/7dKDFwnUyQ1BEEBAFBQBAQBBqJQJMnuLe0aK7S8ja2WPlxzd5dW3UX46J+sG2bGgJpn3pbTn2+ZvJpJqZmddaX0mylUlvho1sxzL+b27cit+khsi7okRSCnUel0tbhhjGMfVurPLT1V2COlOCFtUFuVaIHJMZmPy5vMiMKvH3nTrEoBDtBcp4gIAgIAoKAIBAAAk2W4NaiOXN/JJbkeQ1VsSKNTiwLNTiOeZgEgOp2INOoF71qPOHV27Mj4lQnEBLsBLP05h2huETfMufkLAC7kGD+ztajKFjFwqXz7awJdYY1gaIisOpK5JR+r6muUh5cjn/LJJbtCMqji8l66bhdsIYaTOm75q9/7Afg7+LkuCAgCAgCgoAgIAg4RqBJEly2Jlycmwtttm93DFZjKvpSeAvQfwtlZar5HjYZrsz2AfqbdUadmOqvm4ky1eO6VhEQnJBxfxhsz8tDqdKNqVuhtSe4ofbg6mMzJ3rgOLicwUwnum5yWwFEbhVmWmgv/l1lg0OA3KTWrVfXE10iwvXk1hw2LNmVhiS5Ahb89BtU4xcZKYKAICAICAKCgCAQXgSaJMElSEcjW7kHM25FstiR3C/Rt8olC8kWE1MrMqq/xs5PsxXCLmaBlceW+w2U3Orj0NugLGZciMD6KnYWhcy0wKIuOPHg6nFwvVRcsiQg+eRUu55rMTaQmcmqfj0cAsx8jWabAh0vq/QXWyOSK1H6EgQEAUFAEBAEEhuBJklwVWiw5s0ga8fOiM+uTiRZUX0Lw4LR60S6c3YWqDHpdMhqo5qvDWKRuijzGKNF4YL24CK51TeVeUKFmbKR6aRXffmwOe4L9504r4WF7rmVIggIAoKAICAICALhRaDJEVwit+S9/RjjzgamE4Z+IoikVmZmwiy0J9DvN7RtC7Bpk+ooWD9v6EcZWIs/aBEFKGNZLBYOE5aUVKM2ldUo72zDserREfh3Umf5dz7HH+GlJA+UxUyKICAICAKCgCAgCEQGgSZHcCkeFGUtyw5B5IRQTNFX+Zge2CC4gxPAn7le8xDbZTFLTwnUEOEMaas4uOYzvby3GJs2GS0VdUkuRXTJpmCXlUwntuoLiEHk6XU+ZmVN4P53oi+5rNTts5YiCAgCgoAgIAgIAuFFoEkRXIqccHmzZjBFS0QQXnh9t16N3tuphj1hFD4fb1lUFM3hBNS3lW2iCq/h7/JyFQN33+GjPe2ZQ4SRsmtFckOVpte8wUy/sAabzJDcpqQiyUUBNwkzmFVXlHuq+0rBS5V0YuuL5FKSh+J1KzAGrmwwC2iRSWVBQBAQBAQBQSBIBJoMwSVyewBaEz5shoqpEYorSMxCdhpFHJiFyh6RxYmtW4NrS+Pj8YZscA4aMj/Up/TA6yoqVG7c/Y8+TSV3oMJJHtKM1aaTW/33sqo6aAzJ5TBhHCLMKouZVZgwRdYpQgISUVd6GtRiSC+OaWuVmcxOqXWruUkN7A4UwWHNug1Qjeq2O9pCeBRsB1MmVQQBQUAQEAQEgSaBQJMguBzz9tkYsiYQ9buzEhMLGMvsWJvwYPG0CutQkf4A09ySHNqqx1BPFjNWcMmywCSXr0tXcxtDbs04EclNswt6awEqzwOdkpyWhZdQCTVV7pS99Z5bChFmxCnWLAp6c2YvL52bjMrwhz+sgyqc73Qk0JWVouTG07qWsQoCgoAgIAjEHwIJT3CJ3I5F5fZG3MDVCzdwxcq2J9pcRiltaTwUj7c1ZrmKt2IOe0YJK4Aew9solGZyS9cbLj8u2RRIqDeruLzBTMfaKhxbUhKquejPpcy95hBidG69JaFesbXabEYZzjZu2g5Ff/+kuszJyYm3aZbxCgKCgCAgCAgCcYdAQhNcPaHDoRbk1pzsIFKzRxrgX3m5UGdsLjsJyW4dkt14fHDdILavQW7zWneG4kJkh2EuViHC2INrZVGg4egk15dbICnZBcmpWW7LAhbKaEZGBspqxsX9e/3f+uYzrrNz5w74dzOGgsPOdkQhNF2Yp0CaFwQEAUFAEBAEYg6BhCe4Y5BUPEiPzS1KtAgl9XudEe92fFoaDEX1NtohywJdmVZKOGVkU6QdMfeX5MGqPysPblaa9Syx8muV5IE9uKzg6kkeqF8Xgq02lWHTRlIyw4PbcFSKvxokVye2VJPUWWVhMP6l18zRFpJT0qFgzc+wOUaidgQ6z1JfEBAEBAFBQBCIRwQSluDqm8pSkExyWlueJCZo0SC5ZE/4wFBvj2rRHFybNsfd2rGKokBZzBqDp5UHtxQzgFmRXLtIDFZAcppez9wbk88kt4EKbWpEJ7m6XYF/539rURpORtlY34RGsXaX/roaU/SGX82Ou0UkAxYEBAFBQBAQBMKEQEIS3DotYkKWoZSa8WNSE2mbAvW31rAnkGo70iMhhmmGw9isOZPZdnyBXiPFNJAkD+mpDWlxlk26Xl8b0azi4Jp9uHb7zvwRczovCdVYO08uwWxWeOm1qqpa+GDJP6TthnEmpGlBQBAQBAQBQUAQ0BFIKIJLnlt65nxb61bwEWYqSy8o9JptncyGithWoBqbiqGxkh2GHiMl+XEj4P84tCf03LotblekrnwSnhsM02sqRlMIpFRgeDAzyS2trEXltqFxw1coMQ4Tpvdt58PlOv6Ird4WeXIpK1mNEQShtqbSc9jKe0sHSzGD2a5/flYhwqQIAoKAICAICAKCQGQQSBiCy5aEZzAU2E2o2jI1qkU1MdlQSZmQ6aSmMUSXyG0mWg3IRzu5eTPohT5Lf4SpmqInYKIJqndiixaQZKTmjcx0h7YXPfoAtcx0LwOvkbOYmZM8hHYEvlsjcmsVScFDbsmDi3/4mzMvkkvRFZC/UwgxKuYUvnokhWRXGvy7fg1899Ovkbxs6UsQEAQEAUFAEGjyCCQEwSVyeyySKiK3Xbds9dqwxeSWZtqKzARCbqxWy2gk0O9jfNMd2O+pbdvA2ajI+lJzPRuxsLGuDlXfWF2l5i8KC4m4Ix4X3vhggyQPkbgGs0XBH7zsDgk07wJlJgOw9tTq/ltSewv/Wopxb+uV3kjgIH0IAoKAICAICAJNHYG4J7jkt6X0u69iAH0XkkwqZAOwUnBDPdnpqN4+g6SWIiLMQhIzDxXcj1DNnYlRG5Js2NWnuBGLy15V8U98PM5SlEufV2G0QCV52FFdi0kdAosNodsPcpOK0cDqRqouNQ+y0utxs5tHtijoqXr9WRQCyAXh6Vadg35c2lxmTvygj40sM3e++AV8OeF09OLKJrNQv/+kPUFAEBAEBAFBwA6BuCW4KuUp/rzYsQPci8qhIkJa3Ced5NpdfKCPp63a6Y2kdjp6Tqe1aQMXY6pdIrq3Y2SE2yzindYi25qBZJj40UWY3CHHZgNcvC1Xup7NzZtDOaUddrmJaKDkls6hDWSZ6Lv9d+X3cOYx+6t2khCzYcNHwSP/exuaYR++Ciu4HCaM6rJFwRxJQbWNA7dK/OAE/2T04yalZ0B1RblldbInVJWXwpplC4XcOgFU6ggCgoAgIAgIAiFEIC4JLqm2lJ3sBsxOdpyh2gamFYYQQWzKhdm7LkRyW9K6NVy3dSvcieR27/x8GFfovcmtJD8PZhkE94jsbABM7hDPhb4gFKP3eGpKKszHa1VqrqFck/e2ssZ/5AA93BcpuEsXfwG3nD/BTW6NLyyLF86Dy88+AS649g7Yd9jwBpBZxcI1V+JYuGZCG6g9QW+Xsp2lpFG2swqPmsseXLInrPx9DWzduiWep1jGLggIAoKAICAIxCUCcUVw9SgJb+flQSqSSVZtWbHlf+0Ir67aWm06W4WWAwp3VYjK4Za6WmiT5G4pH4lbD9wJ37KoSP2dQilpTeUaHE9+y5ZwPiqZD2K9HqjS7qGR2OeRCFIh3+4oG+UvXlbRJrzO8/DaiLB7k74koCxma7dXBqziNs9Kho9eflgR2xH77AVP3XMrZGVnwOmX3gSLF82HpAduhX1fnwFlkKvUXibHVtnMeExsUbBScLlOY5R8r2xnhmWBSC6RX0rwUGI8XYiXeZVxCgKCgCAgCAgCiYBA3BBcUm33R9X2XlRJLy7apTy2Hp+t9nsgk2ImNrtQjeyrZZwyH2c9kgjqDe3aweiSYsjZhV5RrZyL5HZnRgZcX14OFxQXw1doXyCFl86dvm2bsif0z8mJW3tCcW4OPJWRqZRqLl7hwtA2QlnMgrEozPnwTfh28QLVLJHbfn26qt9nPD8FLrzubpj5yVdw/6NPw6SbrvPCnBVcqzBhehQFIrm6P5c3mQXjw9UHoGLkpmVBTSWm9EWSS4WSPsxZ8B0qu4GsyNDXbYxCHfrRSIuNRSD089nYbbaNvSI5P7QIhGA+Q7/IQnuJ0lpgCDTh+Yx5gqurtq9hKlgXprXlYuWzNSu6gayEtPIKpa7O08KK6efzrYOOz8fwXsmo1N2NZPZaJLP6beVq/PtfVG+fRIVzOloRTigoUASXzqN6l2Rlxp09gUKivYwJKl5BS8g8g9ST0pqD13ftRWfCx19+DYuWLIMUbROdGXsKHZaGK84qC1lecinMef9lJIS1cNyRB3vILbXRqnku3HrFeTDz49nw0pTbGhBc7kePoqD7cPVxWFkU9HBnwX480HnJRkpf6q8E4/h++tU3UGVsvAtkHYaqLt3X/lpxZaiak3YSDoEkyD9oQ8JdlVxQIxDAm0aaxOxuBIByaiwhENMEl8J/kWo7rlUr+G9xiQrMRESCSQhtZyKSa7W/Xrco6LFwCXwmNGaLAkVF+BgVyvVIpDvgZrHswiIVDaEOn3OXZmdBSVo6/IiK7Ef42HkdJnegDWU3IJldh2T2BnytA9alNmk8U5DcLsObxeVIbo/Fv7/H85JQyR2Dr/Ww2IAWS4vCPJYiVLaPxKQZ8xAfKkRsjzn8ILji/NNh30F9cBNVjSK4VCjJg9MsZqT0pmOkBUry8M5r/4Nv0YYwYp8B8Mgd1zSAY4/eXWEC9vneJ1/C0uW/woC9+llCxiRXV2pZxWUfrn4ip+tV19XISeBsZ0n4y9+//gb/bt7RyBbldEFAEBAEBAFBQBAIBoGYJbicuOE+tCS0wg1MFFCLiSyrtOZ/dQA8XlyLVLi+iEwWqpPdkUy7DLVVER9kSNn4ehYUw6H4N/1UoqJZgD7UO5HkklL7FL52IRLdi5Ho9sb6NNYZSIz3xG/Dx2DosO+MWKhksXDhhrR4KQswOsQNaEdgVXskEtDJt14D+w7sgyGy3KaNFCSpTOZqatzP5Cs1mwJtNvOV8CETV+Fviz8HlysZDjtgDLRt1TBaApHGrp07qi80i75b0oDgmjea6Qqu2YdLKi4VRUjxR12GtigaQ3TJk0tlJ1lV4uyLTLysSRmnICAICAKCgCDgD4GYJLhEbicggSQymI+btSjJqT+/LVsdqZ6+4YwYjJ7swQyImczQ3ykWpJjO0+umoZrZBn8ex9cvwY1plH6XiO6T+PdRSGhfQ/bUEi0Plxt+XDqf1Nt4in2rk1sigleeezrcfOU5kIsbvxQehreH/Kbr1v2rEDr5oluguMJ/9AR9HpZ++5Xbe4u4X3zWiZBsYYol7Js1y1Ok9Ik7roDzzz5dNWFldzDPsVU2M+7CPNWNIbfmfstQ3ZciCAgCgoAgIAgIApFHIOYILiu3RG7TkTDWGASVbAakqnIx+2+toib4Cx3GrTWW1FCKXiK6Y3Hj2WObN6vMZj3x75n4uH4d/oDh0SWrRY62OSvY6fZHHxt7PTSuT/Fa7sFrIeV2+JD+cMpxR8G5Jx+lFE9zqTEkURdKpd177wllqN7aFfbh8vFO2eXwHEZOoPBiV553uoc8W53fAhN61GFflRYRLKzqW/lwOZqC7sXVr6kxERX0MXTu0gWtGw0jbQQ753KeICAICAKCgCAgCDhHIKYIrk5uXRiBwB1Uy7uQLYFIin6M6JTa5GNU5fip9KevhA+hIIL66I7FjWej0LZwwo4d8A2Ocb/aKmi+q57k7GkkQXAyPUS0apAcl2ekK+8vlT/x/F9x0B9iaK4PMVualdI5HC0C52N84L1x+z75iGnjHKnNgVwrKbc6ub31igvhwNF72w67vMKdka0W+8zsNgrKSkhz9y5mmwIpr61zUtB7+6zy3g5H6wOpw3aF8GiRn+uOtWtT2KZgtdnMrOKSguuxKnjWjfuXUJDcNEwCodoiq0sT3sXqZK1LHUFAEBAEBAFBINQIxAzB1cktUKxZVAOJGhKRNau3BIJH2cXfidhaRU/wWBUMgsFWBX3XPLXlhPxZ7bS3UoDboPfyQ9yUdWpJqVJyNxkzlozXQ7Fvmbiqa8ANdFSqtMgDvJFtcWUF3EEeTqUCeoci40XA2YB5sxy9Po9+kGjrhbKm7YGWjwOxIpHeTPQYU6HwZeZr/wSV23sN5XYEKre3ILk9aL8hqr4dTr+uXuvpLj3FCZqAm8uSYO67j8MLD9+qGj752PGQm+UmhVaFWt1R6E6MkYbEn5JCUNHj4VqdZ7XZjOr5ymDm7Apsh6oOrPnjd2iHXzTS0lKhuroh4fd9thy1Q4B93/4Qki8V/hBKvOOyNhJvTsNxRbJOwoFqbLYZEwSXoyXQhrKy0lLckORSdoRqYwcQbdthH64eMcEugoLd6/oU6EogE0T9Xyd17aaUUvC+itEYDkcCyZuzqO7LqWmwGdP4bq+qhpeQnZYj4aVNWd5vuGJFJH3ZJyh97Tgkx53T3crubujzLa6pVu1SoQgPHyCR5TbIG6xnTcvMzAAXboY6Hc8bgWG+xmM8X9pE9xRaKC5BckznjdynP24muxaGYZQEf2VXUT0BdxJBgcjtzlVfw8uP3Wb0NRDOOWm8328aOzAiBZXmLVr4G5LnuNVmM3vyZGw6MyoES3Rra2tg6YLZMHbsAZCKfmwpjUNAf3+ceOKJsHLlSp8NjhgxAqZOnep5XwnZbRz+sXy2rI1Ynp3YGZusk9iZi0iOJOoElxYepd29EdWuXRiBgAZEii0R2nSWKH0gwsqtuYrZBao2n9lsOLNL6GBuUyfFdr/zORSNgZJBULxcKjV4LRcZ0ROsNrbpfaUhKaJIDURgT0LltaVxQjNUApvRFwC0HNQhgU0yIjPUGdnS9HYpysNajFu7BmP1clgzJr3lZe64vRT5gcgvxa5t3roVppXdpoYxcugATLRwi1csWl+Lcs26+lia5LHlokdS4NcoDu4OJLeTLjjGTW6xr5ceu9vSbqH3SRvZfl6+AjeZJcG5Nz3mOURKrq7iOrEpkMXFXXADog2Ltfuy4+TNWVOXDH/9vU7FwBVy5QQx6zr8oTRgwABYsWIFVOJ6f+uttzxzZ3OWepm+NDfDdNnduneHpUuXilUk+GmIyTPNa4P87m+//bZ7nm1GrO7zeP+gOvmYCVPWRkxObUgH5Wud+OpI1klIpyFqjUWd4NLO+cuQ3FYhaUvBm48ewYAUXPpb32hG5IRvYGY1l324ypqA5ybZREOwiotrNwN2fkxfCisfOxgf9a80Uv9+imTnRVRLz0AS3wMfsQ8zOiTSSiULVT9FudBbm4qvufBfF5JPIq92BNzsR9X/TkU8e9EPtklkWfl5UVUmC0QBEloivh/iWIjg0iP0enI7EN6cej+0a+1cJWVl1d8qbpWTDIvee0LZEpjcEpHu2rGtv1OhuLQcZmCiB7rxHHco+nwxkUJmmr9thO5mdZsCd8Qxca2sChw2LFgFNyW5Fn7ZiqHRULGPZqIHv6DGaAX+UOrTpw+sWrXKQ1DT0lurEec13wtatzvQcvT/rHkDqio2q3VSUe5Oq03tDRw4UIhujM53IMOyWhvu8+vUPPfqkgGXnTHIssl7pv4AG7a6bVmFRsp1WRuBoB8/dc3rZNmyZe4nOvhD/2aiAHR5376WF/Tg8uX4mVgt6yR+ptt2pFEluKSyXIo74w/kQKU4TA+pxd+tEjjoJI5VWia2vAHNEyrM2JDmFTpMi8qghw/ztXlJJ5j+1F6dFFH7PTHCwu54LfvizyQtLiqRbCr6GPhcK4+wL0JtN7v6NSWjwpGFP9no522DJxDxHYQb4igZhSfGLaqpM55/BJrn5VhGS7Dqh24W8xctUYf2HT4aaDOZXljFbZkF8O6jV8Bn019Sh0cOHaiU266d/JNbqr94yS/qvEzMAleWlO33rUdKLqfuJZsCFS8/Lo7bLvEDN2735cZf56QmzZ75ClRLRiB/UDU4TveE0fsdAAvmzVVWBPo7J38vaNt+FPToeznaenAhYcG9k5alTcez1esZ6aUY0eN82LJpARQXLoeff/5ZfbBNnDgR3nzzTVHWA56Z6J9gtTY6tkmFg0f1gFOPbA/9OhfDty92A1fNP96DNSzwJ43tARs+GwIz5qfAd8t3wuwFa2D9lipZG9Gf2pCOwLxOmNiO3203OGv33WE0Pkn9F/9thU92SPjRC92zr8Yv1tv23BNewyeoszHq0ScbNqBQUe35giz3kJBOV1gbixrBpUVHsW7/iz/lJuXW6op5oxndq8yD9mVT4Gxn3CZbFehvJpn0u69YuXTcnyVBJ0X6+O2Is1V/TvrwRcR1gkxj0Mm2mTTTcdoQ1x83oM0niwPOAampLZvlBrzgZs9frAhDfvvuKsEDlzT02manJUHZX/PhVQwFtnghbYFDRXnsSHhj2mSfIcG8MMTBvz3rU0hGb/ZlkzR7gqHi+rIpUDtEdJnc6tEUOGSY1QXTl/1ggx9s275TyG3Aq8htK2ByqxNbIq20fu1IrVVXiggn94bWHXp7EV0it/IBFcTkRPkUXhvzv5mj1gkT29nPDINOeWtw8eA9TO02ppu5abDG3666Ish2FcGp+wGcOhrg95PGwOkTenuIrqyNKE9yCLo3r5OMdLT7tWsPD3foANPx8656/XrFH2hJVNINHomrXugzM9fw+J+Lv5+dnwcrxoyBo5Acz/r7b/U5J+skBBMVoSaiQnD5G9UFuFloJ26I0m0J+u9kTfD621iYrPIyedUVWl3FJQzpb7Yq6MkgqG0qXrF1NVXVTH7t/Lt2r0do/iy7Yf+oTmrtHrdfgooo2RRS0bbQr0/XgIddhYSW/LHJuGlt8NCR0DzL+DTZtQG+ePVhpdgmox2iDgdAN4erzj0N7r3lEkeRK3gwf/27CV5+9wP1eGn40L2htLIOspA4B1LMMXFJvWUvrpVNoTGxcSmCQof27QMZXpOvSx9MlOaZHg3S763bHwhMbBsLTp1BdEkJJjX3jTfeUB5MekwtHunGohv+82k90L4EejJC+wV6dEwBD7FNKrUmtf6Ghbepni1WwOMXA6z+vzGKMJOaS+SFvNsFmD1T1oY/EGPruL5OKCZ7LloCfxu8N3RBywGgaluH9xYmPPaR2vFzyrA2Er9wYYr6AV9/Da83y4fvDzwQ9vnyS3XRsk5ia+7tRhNxgkvkNgWVuCPxw2wiLkAqZt8tERl97zkFyjLbFWiBEkklgspRE3jRmlVbPlcZx+k8/KFFTOSX2lALWmM0Orml8fHf5tfpGCmxVq8z4Obj/Lf+L/fBqm4gyrJOsK3UXX7N6hhRRPYAkw/XTVQDI45FRsgxihww+frzkDR6x7J1Y14HI/amqAzXwNABvQMKNEvr5fo7pyjSc+hxZ0Dn7n0UwbUrnNnMnLqX6usktz7hg9uq4C9smFO7Ao13yuS7YOSoz+QD0uE9kMmt+oBCny15bHObj3N4tvNqrTucBdl5eyqPbnVVsRAZ59BFrSaTFvriU4frg8jt3Gf3guyUv933kbrGh+Dr1XIFfD51Xw/J3YnRWoTkRm3Kg+rYvE6I3P7Qrx90/f57z2d8YJ9s3sNII6I7dy58d8ABMAIJbxVaGehLkKyToKYrYidFnOAqooE3q886dlTqrfrbUGrpX1ZU2ZJgtdGM6vBTKLYnKEXWeJ1VW/0YP71SpJTui6bnz76+0TVI/6tNjxcZ1V83flcE1KK+TprN8Xr12fdHnrmulafX3yryZXfwdy4fz8KQYxQvd9EPyxWR1VWPYw4/CG694jzo0rkdZGemB0yeqY9fVq5Vm8voC8igoaM85JZVXN5sxjYFp+OmemaLgk5y9e88Tskt971+Z7lHjQxkPE2xLj9SpHsCkVvdZxsOPEgVJn/umpWP4gfUFrErhAPkELWprw0it09OGg6LX0CPLWwOCbHVh9k5fw0seXUAXHtiR3h4xhb8AlQlayNE8xjuZszr5LEhQ+BPtBS0+u47ZUOw22wezLgGI7ndhJvTbhg8GO776SdFcsXyFAySkTknogSX1dsLcnJgXzJ3mywIupJr5VHVfbj6ueqRvEEk6fs8ERJWbdmKQOTXQwbxFyKd+mY0OsaqrlKETfV1Aqz/7ov86v35m07dPmH1O5+vk2UVJ1gNvP67aSDqr78xOTmelZEG90+6Ftb9u1FV79ypPUZgaA4tm+cHTWq532qMEXzdnZjGF8uhx54BJ0w8GbYVG1EnHEZQoHMbZDYzDBLa3kbVhy5eM6S+lF0rfGiVff/dIvUlTopvBOh+oHtuSbnlTWThxI76SE13b25kP119+LFw9ixtO0XAvDb6dM2A71/A7bEhUGztxpCdshkuP6s9vDZni6wNpxMV5XoN7iE52RhrviWk48Yw5bENcaHPZvLoXk0RGAyOIPeQEIMcwuYiSnBJ3WP1diPGtNQ7V3TAUHCVaot/6iSTr5kTPvC/bmLiXsgeJVRri1+rMggwWxq4vheWRh0iunSe7t9VdgaLMTEZ9VgdbCaHiak+Ri9l1zhPP26VZthKadbreZFj7Q1u94VBH25NEBYFOp+SQZD1gOwNZHNIMphiY24vRBRvvOdJ+PybRcrDe9mN98K6HVUqNFiWQW7tVFxfNgVzyDBdxQ2Jgovpikn9keIMAYqWwJ7bcNgS7EZBdgX25BK5VfFTw/CB6AwFqWWFAK8NIrdkS4C6+njbYUEMyXNO6mYvu4KsjbAgHdJGaZ3Q+7cT+up/3qs/pKItwdcT2cZ2Tvwg77fflF1h5Lx5KsKCrJPGohqe8yNKcGkR7odJHS7A0GB2W9TZV0uXq7Q6/tAxnhmbPaz0LYrP0W0KdCqRWn48wWSSiahZJeXjTLQ9cBv96+fr53I9eo0IHQeI5g9LD2E1vu3pbzzqixVgrs/kWm+X2zCTZKpjR4gbvMH5Onx4hilESmqKs9iy5uXI3t1APbx2y3rRTyvR9vATYpoEZ1xxB1Qlu8NDkSWBCpNcp28LVnHNm81UVAWreHTYMNsUeNOeE8JegxnlaMOdFN8I0L2gTZs2uPdjiyKaHN4rkrjpJJfj5Eayf+nLGgF9bdDmrx9eG4ieW7IlRAAxJLlkV3j/iTHQoXWqipsrayMCuAfRBa+TrRjKi27W3xie23CSW32YZFdYOHasJ2OirJMgJjHMp0SU4BJBOA7TwRYjq9DtCFbXSOTPKskp2xTUo3iDgShiyY0Yr3tIqNpA5FZkPdTNUGpVHYN46lEVWL0ltZdf17cyeHzCeLpOyKvxmbc6pjZWuQsTWJ3Q622xEs3jYwKuq0l0bWy9oDaZBPtTc3VcPXVNardehzb/xUJZ/ttauO72+2HRkmVwCG4s+7//Xu4htjy+UiS6vkiuLxWX2+CQYXYqrmd5OGG2RqOlmGkuP9+dQlmKbwTog4kU/y7d/y+gEGChxJXi61KRbGehRLXxbbnXRi2cckBbyErZHlZrgtVoe+LGs4NH95C10fipDGsLtE7URmT0xE5ahXGzw9qbd+PUV5+ffwKKr/vBP//IPSSC2DvtKqIElwbVC0nUOiMFL5FYHgBvJqM6HB6MSSzTLvXg1yBoKqWvh4G4X/eYyY3fzR7batPmNKpPpFQ3oXs2a2GTpADrhQkyv25JXk3nmPf46qSZ2+Y6bIGgMVHR6+rWCrZkcMhHT6QE4zErXScV3R+s/839mm8GrgAjKDhdZIHUW/PPRrjwxjsUuU1GHC66+DLYWFAN6anuuaC0vHrRbQoUoqx0V6E63AzDupiLruLSMbIr6HFxPbggfAxFoE+tSzDjGkYZkuIDAfpAateuLWzatBnV2z2jot565jqpl8eqMGrfQbDgu59l7qKIAK+NjRs3qagGpN4mhduaYHG9SXhzvGRiR4+KK2sjiovComteJ5sxkRKJVOdgUoaUisqIDzIVoyvcOnCQR8WVdRLxKfDZYUQILvvb6N9d5eXI3LyVQk8UBRqqsfHMTHgVIdE2fhE55hwkTBCZ9Co11FBRWe1UlNHw0dKvivwZSi6TY6uYuWb0dHVXtxjo9fR2Gpxvw5iYjPKYqB+dbHs2y+HrZgXY41U2rpkJMNdjAqyUSmrXGBT9Tml7Y6UsRFsCK7dEbl+YMQcK0ro1GJ6epjcTF0FGbTEs/vEXOPOY/VVdosCk/L743LPqb6uQYb6umcitkfxM4aU9LHBHJtKiyun2Bcpx8c37r8GJ513lHkeg7DhWJiIC4ygqwhTUiGM01Vu+TFJx6d60+q/1Ebhy6cIfAoWFRZCCm5CvOrat25pAW4bDuLnMcjwUJ1dTcWVt+Ju1yB+newip/DeienvHihWRHwD2SJ8PrOK+v3at3EOiMgv2nYad4NIHRw7ubCzGeKktWjSH+1PctJQIbAYpqAahtRqiUnjxOBM4FTVAYxdq45T2yF0poLToDCKsQoEZaq6+KY368gT5NxYp1WNiTMfNiSBoIXttHTLqm9v1XIcfIsv1mHB6SCgeMCuyHLdXx0j345r9zGY7hW7X4Lb4te0EodFwtAhZZVUNPDj1Vfjky6/dtgSMmHDRJZfBP7VdIB1T7nJhFbdltgtc1btg5fKV8MarL3jS/6rrMNbIFzNfhoKHHrRUcs1rTT1QSDZUb2VpcdfwEF1D0bWyAHrmitYeTsqyomZwCq5xF3qZK6KgKMTY/cV2OGTl4LBg0R5zWkYnyMhsC5UV7sed0XofRBuHWOm/rKxMJXQ48bg+eC9cgwquTV7mMA+Y7idD92queuFH4bI2wgx6AM3TPYRsde/utx9+OEdvY286qrgHdu0GqZiMpIbiNcs9JIBZDG/VsBNcffiUjcbDHvCAblHQ63H4K1Js9U1fTHRpKRNNrkKVT6mS+KOSO2gEWCltxHcM0qOIpPbo3uyJ9dgPjIHom8roJZ00Wm0E8yKcWhv6JjCPSkvkyahjtgko5ZbPNxRZnXgzTlYqrq7OUj0PeTbIticKhPb3WsSQcKJYtpEWHGk6/lq3CS6+/m4VLYHKIceeCZffdC/8ti0F0rXV2SwLvxClJsN382bDvC/eg88xQ5qyaJAKT19i8Oe2ay6C/UftCw8//SLM/ORLePeTefDf/ztStcsqboOQYYYXwZcflwkvRi3zWBe0hwle79D+eQWYpldChNndtujmf/jhh8PHH3+sEjpEIiyYv1soj4HGdv7558O0adP8nSLHw4AAr42PPvoIundIge4t10eN3PLlTRiB2dOQRNEGXFkbYZj0IJrU7yGU/fA/v/8eRCuhO4WEtJMxpj89t5N7SOhwDUVLESW46RkZUF2GFgUsDbKX8dXgh4yVL9fshyUll0iuOc4t/e0W5NyklxU2r4gM+Lqe5pe6ZvLLw/BlVvd4YA11mBY4LWwilLo9gdVdIuSsAHuIM/VpvE6Ema+DY/HakWivzXL6CjDsF3oMBHVNGmulY7yJTcUNxuNTN29WYbh6d+9a/4UgFCvLRxs0rLWYfvfuR56FF99+31Nz9549YdxFD8LPmzCTHS6C1rkuyE0ugy3/rIInH30BSJVNTaqDqlq3Mk+k/JbLL4DBGKIsD58ScASIQXv1hY8+mw2P3XouEtyGoYXMJFetR82PW11D2fY4la+359dXXFwKs7Zk6a8wMcz4xXvz33zztcezFivXQmSbypw5c2JlSE1yHF9/PRfV2xQY0S8bn9wVRR2DjJRi6N7R/dRR1kbUp8MzALqHUKFEQ7FSUnHdyjqJldlwjyMiBDfF5e6mcGcBpKAZXC++VFxSbNmWQC2YSSqT3HIkO6kGkePNWEwozQ5TJr66HZ3qqGgIxsCY0ujkWG+HfZequtEvKYisqjIBpsP0mu555QcpOtHVSagi5UScjfN0wqrHAGYM+Xp1pZiOseeY6ylyS8NFTOuMaA/FubkwHzOxUGcnjD+sPhJFmNYo7Zj/9ueV8Nyr73oRW+ouB1Mr9u/ZFXLTk6FVThKUr/8Znp/2Anw+42VjNG49fu+9B8AlZ50Co/YdAK1aNLMMa3b6CUfCLZMfh507dwJHU6BGdC+uTnL12LjG/sd6Cwt9cdFsC9QOK7oKZ43/0heKV2Z8BA8+HSYAE6TZjIxMJDGp0Guv26MWPcEMZet2B6iXMvBLuJToIZCZmQXluE9j0mWDcRCrozcQo+eU2iK47MxBsjaiPhPeA6B1Qrfe5wYNhpRvvonq6FRc3D/+gMv32EN9cZd7SFSnw6vzsBNcIn6FRe5v4vTvKxQmDAmWsh/gMSsll0gv+XMrjHrqZFJ2DQsCE1J6WRFkPMa2BU9YL4N4emwJWIc3cFFd1YYiKKzU1RNRHSGOu0v9q/MD+NdumqlvItg8BqrHBJr6UFTOGD/9rhNkD0k11GPC0EOCtefm+jle42BFl+YlA79suIMOKBU0nIXI7exvlsDhp1xgSaRL0E/1HtoKZnzs9rxRYQz+M2Y4jD/sQDhpwiGOsqM1y8/1tJGekmRLcrkSx8bVY+R6LAtkS8DJ0UOJMakloqv7dWktVWICEyn+EaAPgliwJ/gfqdRo0gjoCkOTBiJ2Lz6UqXiDvkr0ANM9LT09Dfr23SPoZuTE0CIQdoJrHm5r9OEWoxFbJ7fss2Wyy95bHpxuQyCSyxaEBqZRC2MkWRt0KwO3pUgukVX8t0YLy9UAXo0QGqyL2Zciu+QDpn+VNYL7ojY1awCd4EkdjL8z+dRtED4tEebrYrWZ1WNj0Ho2NV0h1v3HfH302hq0JnBJo9TJYSyUAGLsyMFwyH4jlN/WKrQsasuK1NIGk0vPOhkOQmI7bMiekIE3jRTctFXnMNPa/MVL1ZWQ6Z8UXLti5cc1k1w6V8VRNjaimdVcbttNduugzLDghBHKhGk6I71USG7CzKZciCAgCNTQRg0pMYNAxAnuTtOlexFdEynkiAlEeJkwsmJrRXT1pAvcDau7Voizr1dtWKMKRv+sBvubJbNaTPW9sqppDbA1gUg19WuVhljvT0+tq5Nlj9KrVdbruoxroNf0jWy6bYLtCosr3buTh6OXNTsz/MkJ0lJd8MErj8LOomKMgYrB27Fk52R6riQ9LRWtClm2Ki2nAPY1L0Q03571qSLKNz78uqeqE6sCkVurwrYFOqZ7tXVM6Rj9He4vCv7WZLwcpy88ouDGy2w14XEKX2nCk+/80l2G/5ZUXCmxg0BECS5N/YKSEuiFPrdUk0XBKumDOSyYDhsTXRU3VzvAPliPYqqRZjtSyXve9b3v5n3wuqXCV2gzGkqDDXE60WUSbai9THzN+qlZAaYm9GQP3CSrx+o4ETDjAJNb3TvMRFgdQ3XzZwzdRnMyfPBATKpgpamGfqFSPy2b5aofKnw/MH+3CaZnskH8tmqt8vdmoOJ73KGjoKyqzpMcwgnJpX7N6Xx5LOakEOaNiTW4OY3ykktxggBGxRAF1wlQUkcQEARiHIEkjLJBRcLIxdZERZTg0qUvR4K7Nz4OLzdsAYpQEEklwuteIR6EmFSyJ5frmcmfh+zimcqni8Xqi7c5q5h5KnylPLBTa7kNK/JsjqVr7s+OUNulMdYVZ25Lx0L3G/PrOg5EbJkE08R/gL4hUh3JChCtEgpiy2OvwsdDdzxCIZ6S4KRL7wBId5PoQEiuVbYzK9uCGS9azju3b0aLQlm0oIybfulDoBq/CHTr+3DcjFkG2kQRMJQCUeaa6Pw7vGzOHkr2Oimxg0BECS59sH2NH2yfdugAq/Ebj67i6iSXBsWxcAkqD/mlP/wwogrT43+dLBL5tdLXGAQmg3aRHfRpI7LJiih5b/W/zdNrpcZSHbu3QgP/rumxB1+DmQib/cbUh9cjdfrbGNwKjKCQhBu7SMEdNWxA7KzIIEdC13HLfU/hJrXZkIRs89rLzgc945kvkktdpuFmNCK3VJjk8t/0mpV9wRx9obLCHQJPim8EKjFmJAXwS6pdhRE9wru50elcbN30FVa9Se3glxI9BGht0O1u2ktLYehtOZHPYGa69GrIgynP/wiX3Z0KPXr0iB4w0rMXAmqd4Cu3YwazgzEtexomW4hmKerbF15Zs0Yl9+ndOzbuadHEI1b6jijB5Yv+BcktpnxQpJBILherqAoeFVdXefEERe40sqsnh/BKa6vVoY9VK6XVivT6etDssSsQ8THGpUiQHvXBzwwT8LTfXpF541+rU/QNbBzijOtZKsQWG9L0dongUp+foNJIwcsP238UpKdGZRmE7D1A6sq9T7wMU57FkGI4H9ff9wyUJWWr9nWSq3eo2xWsBqJvQLMbKJNeIrr0O0WCkOIfgb0G7q0qbd44H9p0jI0Pg6Kdy9WYBg1yh4SSEh0EaG18t2gBLF1L7yUkuFEu5dU5sHYzPl1EYWbiRIlwHeXp8HTP95CVGAoyqXVrzDkfPYJLIj+JdxswShR9Fsk9JFZWSYTi4OqXS3R21rZtcGPbtkrFpeKVucxQWYlEspLLSqVVPTrfHGrMF13TlWF9XHa2AKupMtsV7Ai1r41kZt+vTqi9QqjpirXJb8xjY/VYD5/mSW+s4cMKb0p+Hjy2cRMeqVPhtyLlvw31sqc9Yb+t/EvZEt779EuMsgBw2PFnwAkTT4bSyjrISvP2FesqLo3F7Mnl8ZGaS0VXcOnvVEz+YFXM6q6karSfafogWDBvrsohX1WxOdRLIqj2yAvM5a233gqqDTmp8QjQ2lg4/2u1NlJxw+nv23tBzxYrGt9wsC3g/eS3f3Oh2ggBJWsjWCBDe57XPQS/ePyGCYIGbGiY0Ce0vdq3RkLVvDZt4GhDXJJ1Eink/fcTFeluAY7r3i1b4AZcFExyWcn1WBWI2FnsQGLyR5dmVnf5cvVH+P42hHnOcWAGZbVV9e0fWy+bBVfXx6+/pjdn5ffVCate1xNaDcev+231zXZ6dAnCZj2GB+uF/xK8A/r15mAVDq4oNqoQsd20ZTtMeeZ1eHjaS2pQSXhNZ155B1xy+VWK3OqFVFwqmWnJXn5ceo3DiFG8XC6UEIILk13624rwmpVe+nCmlNSk+EixRoC+AGRmZkJtdU1MbDSrKFuHY9kJLVo0x+QgBTJtUUSA10Yd+ukXLy+BnqNxMFGKRVuH/b7y0UY46Ow6WRtRXBNWXXvuIXi/nY4qbn/8/ItWPFwXbpp/DtMFH4eRFPLycuUeEkNrxQlPC+lwVcYvXJS0QCfgh9z5LVrAPxgcn0gYq6v0bwbWaYkKL9EEOqaSQ+DvlLXMKpWvlTKrt2cVBUEn004UXF9RFuxAMrfra5zUhm5ZMEeW4D70Npm86t5jtm9QW0x6dZX3Y3yUfggp5JhjvfCPhf5szSGd/2AbIzK+EUntrM/nw5KflnllQkvGtXHH0zPg4P2Gw7ZiN7XPQjL7/+2dCXxU1b3H/yEJWUxIWMO++aSID1nKYiEIpRatnxZkKxYBqRZ5orRaq76CFbR1K/YD1rYsr9qq1NYNKlTahxbQBISK9KGCrGGHQCD7Otne/39mTnJycyczSe5kZuB3+PCZmTvnnnvu95zc+5v//Z//386KK9+JJVdKXHStqDWFrp1l1xS6+hxMn13ZpgJ9t46BuPVjkOM4xWaeK59OZvyZ3RTu9mOPwFXJOr+Do1+U0+DBgwN3ELTsNwGZG5Iw5amVu2lK6mC6ioJjnTud15c+SP+X6nfPnr387j8qtgwBPU+WffYZ/YR9YBMPHAiKyD0xcCD9Y88edd3HNaRlxt7fo7S4wNUdE6H7V17QIaIgqU0bupNFirlSVb5fXeJ+dHgrp5LqzlaxwRwjtTuvkD9nZItSItWPszXFrlQ3hab1O7ssa34coqaKaaW1imhfFmU71wVvItkU+mb/amIGeyzgppW3NXP+dW6u+wfGrTdRLD8KDNUiC+QyL2RT+q69tHnbdjqYcYw+3v1Zne7KPHlv91lOuBFP53l9UJw4d3MpZqutVeSallypo10W7BagWX10Tauu7GsneKMTuyihhOKbwIwZt9OaNWuUm0Iww4W1qj5EBbnuObV3rztBCEpwCei5cf5SFa1Lj6LZY1u+P/IT+JdrL9KZC+7MhJgbLT8Gvo6o5wn72NHzHJnpCV87BOB7V8JV9NC5c1Tu0SSYJwGA3Iwm/dGGzWje964iUPILCpTgEouiPGoW31BZAPWiZ3f5LprN/+V5eTSW6/yI/Xez2S/KDCPmjwXWrjdWcSt1tGgWa7EUb1ZVb2dntdI2JK79EdOm77F5TGs0BW9iX1t5pX7xVe7FV1Ief3B+wK23x06Jr6+7JCbEUzxbZxRTHsdII/ZuJfsdyJhX8GPrk7zP/sPH6I9/Wa+ynukioyHzRVwAUlI60enTZ9zzJjaB8osqlUXWblGZdlnQPrnW6ArSvlXkyjZrFjRvbgze5gG22xOQMVy1ahW99tqrHFbtUlCtuJln0yiKb449unej48dPYMiCTKDu3ChVVtzJowdTQlTLWnFP5fbla89OiuYFuN27d8fcCPK8sB5ez5O1a1+jQo7nHs1/ww/1709JHFWhpUq1LCzjtLzv7d6Na0hLQW/kcYIucGvEi8d1wa7/Km4mix8RM+K/S+fPK5F7gR8J2Pm0NpKBbXU7dwS7hBDWnRsrtOu4UXBjDUVU8Cp0zUgOng7V8VX2bItnt48l7Pss7gmpI4fQP9/6HxVqJVApHiRt4ZyFi+pZXTUz7asqfqv1LmC8QfVNdS5CZVv71vgbae6M71Dnju2Uu0Lv4d+yHTstYMWKK0UsuVJMlwWrNVe+164LulHThUG22Qle09JbUShivr0T0++KaGP27Dk1VtxghAwryNlIruKD/KOqHAHaQ2zG6bmRyVbcGQ8foneXd2VDQ36L9LKgvCv919LPKCuXr8d8j0Hw/hbB3qSDyDyRUs4Gr6EcfnQzuyq0lMg9MWwY3bhvn7p/ykJEzJMmDWFAdwoZgevPWWqhK9a/duxYPoNdG/gapIq36Aj+tOtvHX/Ea3P6YRXQXo+nI01YOu7N/UGL5szEBNqmrOVVdMfUiWxFbRUwcStdi+T2Z02bpP7wra4FIl/loiQr3GrX99VKbfGrvSl1pIryMHPyzfwYu7Wy+OqID+K2IML45qlzKZutt1qgalFqWmm1u4LUsfrl6np2ll9T8FrFril4tfDNyCqnAep8AvWTwd+ZGvr1tAVm69atdJgXaJw5sY669ZrSYnFxRdzmXUzj9QCVlHrj11VkB5TQIGDOjSNHj9LH+4tp0oNn6b0VSQGPiytxb8fN+5yOZVap6wvmRmjMCbteyDxZuXIl9WfL7QH2v93DkRRE5Ka1QFzcPBbSY/fvpyxezyKudJgnoTlPwkrgCkLrIjURuVkOsZVIDmaaXTNGr95ek02M68by/xJZvenQ8aUZU9RKtjc7kVtjXbbGEDaEvil2pQ3p6ysXsmiust4OpfV/WBFw9wSxwN5zxySaN3MilZVXcKjCAvriywzKzS+g7Lx8asfhyo4cP0nt2iYrgvK5R/cuNGjA1So2r7fwZcWlLnrx5bVqLoyZcBu37V40FiMuCkZq3oZErtQ3XRaUQDaiLViH1M66aw07pl1p5GkDim8CMn4HDx6suUElJA2kHn16UGlZvO+dm1FDfH7P5e1T/tK4MTUDZAB31XNDguYf5QD6GZkltCtjKI3oc8jR6615ClUUQ69/1Jbj3mYoixzmRgAH2KGmZZ6IuBWRK9eSf7PIXTd+PE3gH82tAxQ6zMUi+k8cOeGcx7US88ShwQxAM2EncDUDmdjrOVnBD5OTaVRMjCMiV0JxJesUwmwl1qWILZ5F7CPqMixzR9ip/AW2IktooTv4UXxvjggh65sS2WoZy5dgee+ShBbcjryW8KOuMm7bFNDmeJri2kyA0RiLsDefXGnjBPutbmMfZhFhC++aRe2T3WlsA1k83gVKiMbFRFNcp3bUhf/r0hT3CHE6WLpsNe389HMaOWoMXT9yPJ3PryTxjxWh60vkuoVtrcuC7osZM1cLXSsbCTOmixa8pvDVTxgCyfRya1sLGTmvwrzPSURup86jA2bJFcutiNuy0gsKJSy3oTujZG4cOnRIdVCuW107RtPoaxNo9ZIUx90VxC3h9kcOU/rnx2khZ/nG3AjdeWHtmXkNkXvK9A8/pIEcgvR9h90V5OqfMXy4cku4mJlJD/BnHZM3fGhdWT0NW4ErwySTSyICyMKziZzNpBu/Znnij8raVyUyvbzK/sksRqN5UdsZFqCFlRX0XFExL3opqTMDvOUg14+hs7Nz1AK4Ck8WE3NnXUfH7PsBi0wthDtyX6u5r3keq7HVQuxNCEv7Zsxg63S1+iSL6O3BDvgvZWXRQ574o7kH00Ii9m1TLN8fbPtExb4Vtt+e82MlbqVoX1hT5Mp2vfBMva8RtrU+v97Erm2iCI+FVzNXcXV5m243J9edyUbPzSvrUtL8s5UxlYgGMbGdqHvvqY6L3MLcv1HepTS3awxKWBGQuSERDaKjoinzwUp6Y1k/xxaeibjVbglI0hJW06JeZ2WelPN9Ve7JE/i9+ORK+DDJAtqcUs330GOc5XCsiFvWCHIMlNAnENYCV+PdwRP5I154pqyTSUkqnFhHicbAwrWc/Taj2foqrxJNoJLr5PLnk5zLWsSxWZZaxkut0Oc/FFmhKaU1v0ZGSaSHCBJhq4WMXgAn4c5cnpun1NFiWb/XkSDks44asSAxkQaw9TdZ9YuzO/nhv2lXx070ithNZgari4poG/9ByjF79erljl7QFHUZ5Pm8498H6OcrVqpejBx1IyVzFPiyCn6wGOW2rFpFrmyzuizINtMSa12IJt/rqAvWhBH1MqN5BK+2+ArfSLbSx8XHURH/WEJpHAHhJ48aK8ovKZ/c6JgUdlm4vdkuC3GxxXTq2BvKQgy/ysaNSajU1nOjmq9bH39ZQsNm7aXFC4bR5FHlTRa6hRVdad2OaFq8fB8VlbDPLV8r8bg5VEa8af2QeXIti1rtJhbJhqSHr7+efsL35aYI3Sq+H5/ixWQv8/7P7NxJ57hbuIY0bWyCsVfYC1zrY+FVLObEmupEUf6+fvpTSl0Jd+at6F+WibzQS8KaaF9iXV/+MMUS/f3OKSSuEkUcLqvIRuyaVmnzWN6E8UV231jPrhRajIufkhzr4QV30b1zp1PPbilkROvyie2LA8dp/6EMGj5kAPXq3rlR+/ps3EsF+e398Z4v6dEnl9GuT7+gG0aPpek/1kHkRNjai1xpTrssKGHrSexg52urha7Uc8fPdcfRNYtV8LrrhuEvhaYORID3M31yZZ7KjSQ2LkUJ3Z59b6eSUv99c8XPVv58tLCtrl6s5v2YsePhlhDgcQxE89a5oZ+UiNuCCN2R18XTNe3FnaHS6293MeJVR8TQ7uO96eDJUnp65ad0lheG3v+E27oHcRuIkWvZNk2fXPHNlUeVy/fvo+XcjQc5IcM0Tix1Lbu9VBcXUUxunm3nxMdWyvv9+tEuvnc+z2HAtBFLtuMa0rJj2pyjhb3ANU8+1H0gpX8ibr0VZYk+e64my1sqW6PbsxtFJN/oL0h+Wi7usOO1r7otO+GbzNbnVRwW7F7LAaUfz6/8gzrOD2ZOod8881O2Ttf6HHvrn6wWfeTJX6nYtCLr7vzuJPruxFvoG2O+qiImBKJUsH/zoqd/W5OSV4nbJe+oQ9XNPuZ2OxBrrhm6S7ssyHfWDGamr62dVdcUvfrcfIne5j0ICwTB8GpTCxmZm23Zv95VVuv2Ia4LbdoOpDZJ/agq4pqaBBE6UYS8ZmVuUSes/Wy1sO3EPnlZ7KYDn9vwmg/W67v+gZ7M18Y8NmSIQJUiT9r6dImkQb3jaf6dg2xP8okX9tCFvGw6fOo4fZNr3MfCVuYZ5kb4zgm7npvXkER+QirzRKVQZ2PPs7x2JoGTM/Rrk0SPjxtSb3e5ft/3ySdUwOtuCrdsocn8+RmeI5gn4TlHLiuBG55D4O61Kc7lvWR5k6JTGovY1T7GWuSa52sVvn3YGvwCu22ouMFeihzn96+vo1vHj6ENr67wGrVA796K6z9wzxx6P22n+mX8ytsb6dW3N9Btt3yDpn17AkdnGEQpHdpyOxx+rJmGTVd5JW3bvodWrHm1JtmDttwWllXz4j1eyOeZvXUErceaW0f8GlEW5Fzswn/ZLSwzRa9mYCd65Tur8A3nuRgKfZe5KTcmmf9dunSmzMzzLHaz1Gft3iMZjNjZh/9JJBPZLp43bvcbefJi7iviFuXyIGA3NyRerTyOPna2gP66I51DN9WPrS1nL9cmfV3V8wpz4/KYF9azMOdJ165dVGQMKQ0ZmeR7EbW64BoS3nMDAjfEx88qdiVqxBD28cxmy6a30ol9DkTcpvMdX1/QGxK5f9+SRr9Y9AA9umC2T5E7Ydxwyj6QxmG63qAlv/yNSsawbtMH6r8UScjwlb59lGV36KCvcOivRJ9t1l5M2PLGCRw2bE6nP73zbk3sXGEwYcpcmjB/GWlxK/u42M/fFLmyTUVTYJHrfu+25tZs9whd9Vm7KxjbZLsZ79afaAq671r4RvANtMpjbQ/xqRUW3ZOxF3ErRW42o8eMo0MH9lG79t4TaowYMULVN/cNi5NFJxtFwDq+N3BUFZkbDRXMjUYhviwqe7uG+JonmzZtwjUkzGcABG4YDaD8ocrCOEl0cW9CAn2VH7VcYl9dsySzuH0nJ1dZbkXc+hWTldt97JkV9Ntnl9D82ZyYwQeTxKtiadHCOznc2AzaufsLtgK/UyNwJaGD/P/jm++qVqbcepOy7ia3SaSuKR04rFobtT2BFwLKgryCwmLKzMqhgvxCenPDP2r2kzrS/xE3jKHpD7G/bWJXJW6luCrdFlz13rOYtSFrrtQzha76bCN2Zbs13q1GYQpfSSxhTfwg1t6LlW0pgkVYMQf/RnGegMz/HekfOt8wWgx7ApgbYT+ELXICmCctgjlkDgKBGzJD4V9HtCuDjsjwREcWja041i7vLv66e4pL6D1+XFdpk/62oSPI490fLvoFHT9xip597H6/OiNC95tjh6n/JWVP0t79R+mltW+xSN1Qs79p3fWrURYx4gqhha0rjoUtC1ryiFvdhilytdBtyJordUyLrvuzWySbYtfaR23pzS3mhWweq69VCOtQZB0ic5RFO4azrrlcCEXl13ijEgiAAAiAAAgEgAAEbgCgBrpJ0193SdZFmsxhxnqwA/12dqCX5Be18QX870ltVIdq+t1zS2n+rIn+78w1JZHDDUP68/+f0eplj1EOW2S3pO2mzdvS2U/3b8rJ3yxmfGE5disO63bT5Nk0dGQqdRh8m7LWZourQVldC3VrT0gwJWpF+HKxWnPVNp7Z9ay2HtcFO7Gr+6ZFr/5sil+rELa6ORw8dFg9Rtdh5RoFEJVBAARAAARAAAQcIwCB6xjK4DRk+ug604MIWvDoUiVyJcWuTuzWmLYlxa5kSpv+na/TNP7/66f/myrYleLkqUzVTD5bmWfe91M6ffqM+vzzVespskeqel/IglZcAOyKiFsXi1RT5Eo9qzVXbbP459YTrobY1YJXXrUo9na+ZjtWwXv+vPv8oiLxZ9WY+YK6IAACIAACIOA0AdyJnSZ6WbQXQfc+srRRIcS8nbY4AYh1l5/v03X9e6tH+LLcPSYm1rMaPori+qR6FbVmuyJu3eLVXuTKd9qaaydyzbZ8CV7r+ehkEvmlkha4fki0GP5LOnPiiEr0IKv/UUAABEAABEAABIJHAAI3eOxD+shmCLE1v3qcF4h5X7XemBMRwfvmxq105MgRtUJ16e/e9kvcWo+hxa4va65ehKbErzHbvVlqrcJXH1dHZpDP5nstdsWHeevG1/1b1NcYYKgLAiAAAiAAAiDQaAIQuI1GduXsIAJ0E4cQSx05hO6YOolmT7uF4mMlpUTTy6rX3lUhwKRI6K+STl9rcmPaZcEtXmutqto3V233RFuQ96bYtQreWiHrf6oGMyQZx3yg0tKyJp8LdgQBEAABEAABEHCOAASucywvy5ZE5G7/1/8pdwIRugvvmkXjxwxT8W0bk8yhkuP2PrdyLS197kUOwl5NN0/9Po27W+La2vvb+gNTW3F1XX9dF2rr+3MUdx3T+msnhkuzT/LisqHsa+yJW+Z/06gJAiAAAiAAAiDgMAEIXIeBXq7NaaEr5ydi9+7vTaEH5s2i/tf0bDBNr4jZf370Kb3053X01sb/pcVPLee0wK2bLW6tnO3ErVnHtOoqwWpYdv0ZM6v119xHxO/+HRwarTGK35+Dog4IgAAIgAAIgECTCEDgNgnblb2TiN2X/7K+xqor7gupnMGsZ4/OCsylnDw6dOQkZZw6y+l2dylhe8vM+aq+iNsfzZvdLMutN/qmRdfqm1tPEHtCjPk7kiKI7aI1yP4uzpb25a73qZzDtKGAAAiAAAiAAAgEnwAEbvDHIGx7YFp1zZNIYiHb72uRFMEZ13T+b/le6pdXlHM2s3a04OpUimvTnuI69CVJ5lDk8p56uCmArO4LvgSvr2NoC7DVEiz7tYuPoF07t6v4t3BR8EUS34MACIAACIBA4AlA4Aae8RV3hNqkEfVPXb7LyeGMXyyCI6OiVNaySBbCs+7/GV03epLaQb6LaNNNvRa5qpWFtLnFzrrry63B32PmHUmnSvje+osL9UAABEAABEAg4AQgcAOOGAfwRiCmdWsqLi6m6KhoemXFEip/frGqGs3b5XF/FAvgCVPmULde/6G2Dxjlzq5WndBFWYPFL7Ypi9RMsWu19Oq+JsS04oVlEVSdf0YdS0px1lEqzrtIktBBb5Pt+3dupsX3uMU5CgiAAAiAAAiAQPAJQOAGfwyuyB6IQCzhtMJSKiorlLU2OSlJJUnQbg2VlXUjLOj0vtoVQGLPznv4KUpJ6Uztrx5Rh2PJxQz1WVwgtCiWV1OY6h1MEXvxyC4lYMWndnvaNhbbnVV/JNVwdNQg3r9VjauFalel5l1yRY4hThoEQAAEQAAEQpUABG6ojswV1i8Rng1lABMhGR8fr0Sx9nMVw+rv2eqrhW9dZP+pPkq78r1Yg8UOW2Ejmk0RGxV5vcq2Jm4Tsq+IW9m/Q4f2VMki11pUHbgnXGGzFacLAiAAAiAQ6gQgcEN9hNC/GqGqLb4mEhGfcXFxalNVVSW1ahWpXquq2Mc3shWVlbmUULVag3UbpoiNjY2h1jExqr55LPmcnZ2DkQABEAABEAABEAgTAhC4YTJQ6KY9ARGfpaWlzcajfHpd5c1uBw2AAAiAAAiAAAgEnwAEbvDHAD0AARAAARAAARAAARBwkAAEroMw0RQIgAAIgAAIgAAIgEDwCUDgBn8M0AMQAAEQAAEQAAEQAAEHCUDgOggTTYEACIAACIAACIAACASfAARu8McAPQABEAABEAABEAABEHCQAASugzDRFAiAAAiAAAiAAAiAQPAJQOAGfwzQAxAAARAAARAAARAAAQcJQOA6CBNNgQAIgAAIgAAIgAAIBJ8ABG7wxwA9AAEQAAEQAAEQAAEQcJAABK6DMNEUCIAACIAACIAACIBA8AlA4AZ/DNADEAABEAABEAABEAABBwlA4DoIE02BAAiAAAiAAAiAAAgEnwAEbvDHAD0AARAAARAAARAAARBwkAAEroMw0RQIgAAIgAAIgAAIgEDwCUDgBn8M0AMQAAEQAAEQAAEQAAEHCUDgOggTTYEACIAACIAACIAACASfAARu8McAPQABEAABEAABEAABEHCQAASugzDRFAiAAAiAAAiAAAiAQPAJQOAGfwzQAxAAARAAARAAARAAAQcJQOA6CBNNgQAIgAAIgAAIgAAIBJ8ABG7wxwA9AAEQAAEQAAEQAAEQcJDA/wPyLfFiO6k2rwAAAABJRU5ErkJggg==;" vertex="1" parent="7">
                    <mxGeometry x="440" y="110" width="332.66" height="172.07" as="geometry"/>
                </mxCell>
            </root>
        </mxGraphModel>
    </diagram>
</mxfile>